<?xml version="1.0" encoding="UTF-8" standalone="no"?>
<!DOCTYPE svg PUBLIC "-//W3C//DTD SVG 1.1//EN" "http://www.w3.org/Graphics/SVG/1.1/DTD/svg11.dtd">
<svg width="100%" height="100%" viewBox="0 0 16362 1702" version="1.1" xmlns="http://www.w3.org/2000/svg" xmlns:xlink="http://www.w3.org/1999/xlink" xml:space="preserve" xmlns:serif="http://www.serif.com/" style="fill-rule:evenodd;clip-rule:evenodd;stroke-linejoin:round;stroke-miterlimit:2;">
    <g transform="matrix(1,0,0,1,-10310,-638)">
        <g transform="matrix(5.142636,0,0,5.142636,9339.162088,50.9054)">
            <g id="AcademicAffairs_RecolorHorizontal" transform="matrix(0.194453,0,0,0.194453,-8898.39981,-36.086319)">
                <g id="LOGO">
                    <g transform="matrix(0,-4.166667,-4.166667,0,47583.122917,773.169583)">
                        <path d="M-204.094,-204.094C-316.812,-204.094 -408.188,-112.718 -408.188,-0.001C-408.188,112.717 -316.812,204.094 -204.094,204.094C-91.376,204.094 0,112.717 0,-0.001C0,-112.718 -91.376,-204.094 -204.094,-204.094" style="fill:rgb(246,247,248);fill-rule:nonzero;"/>
                    </g>
                    <g transform="matrix(4.166667,0,0,4.166667,47086.745417,1336.22125)">
                        <path d="M0,137.923L0,-0.001L119.445,-68.962L238.89,-0.001L238.89,137.923L119.445,206.885L0,137.923Z" style="fill:rgb(246,247,248);fill-rule:nonzero;"/>
                    </g>
                    <g transform="matrix(4.166667,0,0,4.166667,48082.125,1910.892917)">
                        <path d="M0,-137.923L0,0.001L-119.445,68.962L-139.723,57.254L-119.759,-68.779L-238.89,-114.509L-238.89,-137.923L-119.445,-206.885L0,-137.923Z" style="fill:rgb(254,20,147);fill-rule:nonzero;"/>
                    </g>
                    <g transform="matrix(4.166667,0,0,4.166667,47584.432083,2146.877083)">
                        <path d="M0,-251.192L108.77,-188.394L108.77,-62.798L0,0L-108.77,-62.798L-108.77,-188.394L0,-251.192Z" style="fill:rgb(246,247,248);fill-rule:nonzero;"/>
                    </g>
                    <g transform="matrix(-3.370938,2.449058,2.449058,3.370938,47228.004434,2059.06264)">
                        <path d="M-130.281,-34.318L0.123,-34.318L6.526,-48.695L-2.726,-61.429L-130.281,-34.318Z" style="fill:rgb(254,20,147);fill-rule:nonzero;"/>
                    </g>
                    <g transform="matrix(4.166667,0,0,4.166667,47583.127917,1624.324583)">
                        <path d="M0,-0.003L-119.131,12.519L-119.131,-12.522L0,-0.003Z" style="fill:rgb(254,20,147);fill-rule:nonzero;"/>
                    </g>
                    <g transform="matrix(4.166667,0,0,4.166667,48082.120833,1222.915417)">
                        <path d="M0,54.634C-15.063,54.634 -27.317,42.38 -27.317,27.317C-27.317,12.254 -15.063,0 0,0C15.063,0 27.317,12.254 27.317,27.317C27.317,42.38 15.063,54.634 0,54.634" style="fill:rgb(246,247,248);fill-rule:nonzero;"/>
                    </g>
                    <g transform="matrix(4.166667,0,0,4.166667,47583.127917,2014.87875)">
                        <path d="M0,-93.736L-75.907,0L-99.17,-13.432L0,-93.736Z" style="fill:rgb(254,20,147);fill-rule:nonzero;"/>
                    </g>
                    <g transform="matrix(4.166667,0,0,4.166667,47158.699583,1377.76)">
                        <path d="M0,117.983L0,0.001L102.176,-58.991L204.352,0.001L204.352,117.983L102.176,176.974L0,117.983Z" style="fill:rgb(254,20,147);fill-rule:nonzero;"/>
                    </g>
                    <g transform="matrix(4.166667,0,0,4.166667,47583.127917,2080.26625)">
                        <path d="M0,-109.429L-48.722,0L-70.409,-12.519L0,-109.429Z" style="fill:rgb(254,20,147);fill-rule:nonzero;"/>
                    </g>
                    <g transform="matrix(4.166667,0,0,4.166667,47086.749583,1624.31125)">
                        <path d="M0,-18.867L119.131,0L0,-12.518L0,-18.867Z" style="fill:rgb(246,247,248);fill-rule:nonzero;"/>
                    </g>
                    <g transform="matrix(4.166667,0,0,4.166667,47086.749583,1650.767917)">
                        <path d="M0,6.173L119.131,-6.349L0,12.522L0,6.173Z" style="fill:rgb(246,247,248);fill-rule:nonzero;"/>
                    </g>
                    <g transform="matrix(4.166667,0,0,4.166667,47086.749583,1654.776667)">
                        <path d="M0,38.418L119.131,-7.311L0,45.729L0,38.418Z" style="fill:rgb(246,247,248);fill-rule:nonzero;"/>
                    </g>
                    <g transform="matrix(4.166667,0,0,4.166667,47143.5425,1639.542917)">
                        <path d="M0,72.993L105.5,-3.655L6.33,76.648L0,72.993Z" style="fill:rgb(246,247,248);fill-rule:nonzero;"/>
                    </g>
                    <g transform="matrix(4.166667,0,0,4.166667,47266.85,1637.538333)">
                        <path d="M0,90.562L75.907,-3.174L5.498,93.736L0,90.562Z" style="fill:rgb(246,247,248);fill-rule:nonzero;"/>
                    </g>
                    <g transform="matrix(4.166667,0,0,4.166667,47380.12125,1637.54)">
                        <path d="M0,106.254L48.722,-3.175L5.495,109.429L0,106.254Z" style="fill:rgb(246,247,248);fill-rule:nonzero;"/>
                    </g>
                    <g transform="matrix(-3.6053,-2.08876,-2.08876,3.6053,47475.832549,1947.949169)">
                        <path d="M20.446,-73.522L178.872,-73.522L-58.947,-211.304L-59.29,63.387L20.446,-73.522Z" style="fill:rgb(246,247,248);fill-rule:nonzero;"/>
                    </g>
                    <g transform="matrix(4.166667,0,0,4.166667,47583.127917,1814.849583)">
                        <path d="M0,-45.729L-119.131,0L-119.131,-26.858L0,-45.729Z" style="fill:rgb(254,20,147);fill-rule:nonzero;"/>
                    </g>
                    <g transform="matrix(4.166667,0,0,4.166667,47583.127917,1433.774583)">
                        <path d="M0,45.729L-119.131,26.862L-119.131,0L0,45.729Z" style="fill:rgb(254,20,147);fill-rule:nonzero;"/>
                    </g>
                    <g transform="matrix(4.166667,0,0,4.166667,47086.749583,1531.635)">
                        <path d="M0,-23.487L11.993,-32.216L83.926,8.729L0,-23.487Z" style="fill:rgb(254,20,147);fill-rule:nonzero;"/>
                    </g>
                    <g transform="matrix(4.166667,0,0,4.166667,47583.127917,2149.449583)">
                        <path d="M0,-126.033L-19.963,0L-43.227,-13.429L0,-126.033Z" style="fill:rgb(254,20,147);fill-rule:nonzero;"/>
                    </g>
                    <g transform="matrix(4.166667,0,0,4.166667,47086.745417,1222.915417)">
                        <path d="M0,54.634C-15.063,54.634 -27.317,42.38 -27.317,27.317C-27.317,12.254 -15.063,0 0,0C15.063,0 27.317,12.254 27.317,27.317C27.317,42.38 15.063,54.634 0,54.634" style="fill:rgb(246,247,248);fill-rule:nonzero;"/>
                    </g>
                    <g transform="matrix(4.166667,0,0,4.166667,47499.9475,1779.47125)">
                        <path d="M0,88.795L13.381,75.365L14.065,0L0,88.795Z" style="fill:rgb(254,20,147);fill-rule:nonzero;"/>
                    </g>
                    <g transform="matrix(4.166667,0,0,4.166667,47584.432083,2084.418333)">
                        <path d="M0,54.634C-15.063,54.634 -27.317,42.38 -27.317,27.318C-27.317,12.255 -15.063,0 0,0C15.063,0 27.317,12.255 27.317,27.318C27.317,42.38 15.063,54.634 0,54.634" style="fill:rgb(246,247,248);fill-rule:nonzero;"/>
                    </g>
                    <g transform="matrix(4.166667,0,0,4.166667,47583.124167,1467.237917)">
                        <path d="M0,75.397C-20.787,75.397 -37.699,58.486 -37.699,37.699C-37.699,16.912 -20.787,0 0,0C20.788,0 37.699,16.912 37.699,37.699C37.699,58.486 20.788,75.397 0,75.397" style="fill:rgb(246,247,248);fill-rule:nonzero;"/>
                    </g>
                    <g transform="matrix(4.166667,0,0,4.166667,47086.745417,2198.242917)">
                        <path d="M0,-206.762L238.89,-206.762L119.445,0L119.131,-137.742L0,-206.762Z" style="fill:rgb(254,20,147);fill-rule:nonzero;"/>
                    </g>
                    <g transform="matrix(-3.605297,-2.088767,-2.088767,3.605297,47575.24947,1801.484975)">
                        <path d="M13.544,-48.415L117.638,-48.415L-38.692,-138.987L-38.916,41.66L13.544,-48.415Z" style="fill:rgb(246,247,248);fill-rule:nonzero;"/>
                    </g>
                    <g transform="matrix(0,-4.166667,-4.166667,0,47583.125833,1493.484583)">
                        <path d="M-31.4,-31.399C-48.741,-31.399 -62.797,-17.341 -62.797,0C-62.797,17.341 -48.741,31.4 -31.4,31.4C-14.058,31.4 -0.001,17.341 -0.001,0C-0.001,-17.341 -14.058,-31.399 -31.4,-31.399" style="fill:rgb(254,20,147);fill-rule:nonzero;"/>
                    </g>
                    <g transform="matrix(4.166667,0,0,4.166667,47583.124167,1537.96875)">
                        <path d="M0,41.446C-11.427,41.446 -20.723,32.15 -20.723,20.723C-20.723,9.297 -11.427,0 0,0C11.427,0 20.723,9.297 20.723,20.723C20.723,32.15 11.427,41.446 0,41.446" style="fill:rgb(246,247,248);fill-rule:nonzero;"/>
                    </g>
                    <g transform="matrix(4.166667,0,0,4.166667,47086.745417,1250.39125)">
                        <path d="M0,41.446C-11.427,41.446 -20.724,32.15 -20.724,20.722C-20.724,9.296 -11.427,0 0,0C11.427,0 20.723,9.296 20.723,20.722C20.723,32.15 11.427,41.446 0,41.446" style="fill:rgb(254,20,147);fill-rule:nonzero;"/>
                    </g>
                    <g transform="matrix(4.166667,0,0,4.166667,47086.745417,1294.871667)">
                        <path d="M0,20.095C-5.541,20.095 -10.048,15.588 -10.048,10.047C-10.048,4.507 -5.541,0 0,0C5.54,0 10.047,4.507 10.047,10.047C10.047,15.588 5.54,20.095 0,20.095" style="fill:rgb(246,247,248);fill-rule:nonzero;"/>
                    </g>
                    <g transform="matrix(4.166667,0,0,4.166667,48082.120833,1250.39125)">
                        <path d="M0,41.446C-11.427,41.446 -20.724,32.15 -20.724,20.722C-20.724,9.296 -11.427,0 0,0C11.427,0 20.724,9.296 20.724,20.722C20.724,32.15 11.427,41.446 0,41.446" style="fill:rgb(254,20,147);fill-rule:nonzero;"/>
                    </g>
                    <g transform="matrix(4.166667,0,0,4.166667,48081.221667,1294.871667)">
                        <path d="M0,20.095C-5.54,20.095 -10.047,15.588 -10.047,10.047C-10.047,4.507 -5.54,0 0,0C5.541,0 10.048,4.507 10.048,10.047C10.048,15.588 5.541,20.095 0,20.095" style="fill:rgb(246,247,248);fill-rule:nonzero;"/>
                    </g>
                    <g transform="matrix(4.166667,0,0,4.166667,47584.432083,2111.894583)">
                        <path d="M0,41.446C-11.427,41.446 -20.723,32.15 -20.723,20.723C-20.723,9.297 -11.427,0 0,0C11.427,0 20.724,9.297 20.724,20.723C20.724,32.15 11.427,41.446 0,41.446" style="fill:rgb(254,20,147);fill-rule:nonzero;"/>
                    </g>
                    <g transform="matrix(4.166667,0,0,4.166667,47584.432083,2156.374583)">
                        <path d="M0,20.096C-5.54,20.096 -10.047,15.588 -10.047,10.048C-10.047,4.507 -5.54,0 0,0C5.54,0 10.048,4.507 10.048,10.048C10.048,15.588 5.54,20.096 0,20.096" style="fill:rgb(246,247,248);fill-rule:nonzero;"/>
                    </g>
                </g>
                <g id="LOGOTYPE" transform="matrix(5.107653,0,0,5.107653,44926.978294,-265.798699)">
                    <g transform="matrix(152.3594,0,0,152.3594,798.0122,425.059)">
                        <path d="M0.1,-0L0.1,-0.724L0.239,-0.724L0.239,-0L0.1,-0ZM0.026,-0L0.026,-0.058C0.026,-0.067 0.028,-0.074 0.033,-0.079C0.038,-0.084 0.046,-0.087 0.055,-0.089L0.112,-0.101L0.125,-0L0.026,-0ZM0.215,-0L0.228,-0.101L0.285,-0.089C0.294,-0.087 0.301,-0.084 0.307,-0.079C0.312,-0.074 0.314,-0.067 0.314,-0.058L0.314,-0L0.215,-0ZM0.125,-0.724L0.112,-0.623L0.055,-0.635C0.046,-0.637 0.038,-0.641 0.033,-0.645C0.028,-0.65 0.026,-0.657 0.026,-0.666L0.026,-0.724L0.125,-0.724ZM0.314,-0.724L0.314,-0.666C0.314,-0.657 0.312,-0.65 0.307,-0.645C0.301,-0.641 0.294,-0.637 0.285,-0.635L0.228,-0.623L0.215,-0.724L0.314,-0.724Z" style="fill:rgb(254,20,147);fill-rule:nonzero;"/>
                    </g>
                    <g transform="matrix(152.3594,0,0,152.3594,849.357318,425.059)">
                        <path d="M0.1,-0L0.1,-0.724L0.173,-0.724C0.184,-0.724 0.193,-0.722 0.199,-0.72C0.206,-0.717 0.212,-0.711 0.219,-0.702L0.595,-0.22C0.594,-0.232 0.593,-0.243 0.592,-0.254C0.592,-0.265 0.591,-0.276 0.591,-0.285L0.591,-0.724L0.713,-0.724L0.713,-0L0.642,-0C0.631,-0 0.622,-0.002 0.615,-0.005C0.608,-0.009 0.601,-0.015 0.593,-0.024L0.219,-0.503C0.22,-0.491 0.221,-0.482 0.221,-0.474C0.222,-0.466 0.222,-0.455 0.222,-0.443L0.222,-0L0.1,-0ZM0.026,-0L0.026,-0.058C0.026,-0.067 0.028,-0.074 0.033,-0.079C0.038,-0.084 0.046,-0.087 0.055,-0.089L0.112,-0.101L0.125,-0L0.026,-0ZM0.202,-0L0.215,-0.101L0.273,-0.089C0.282,-0.087 0.289,-0.084 0.294,-0.079C0.299,-0.074 0.302,-0.067 0.302,-0.058L0.302,-0L0.202,-0ZM0.125,-0.724L0.112,-0.623L0.055,-0.635C0.046,-0.637 0.038,-0.641 0.033,-0.645C0.028,-0.65 0.026,-0.657 0.026,-0.666L0.026,-0.724L0.125,-0.724ZM0.611,-0.724L0.598,-0.623L0.541,-0.635C0.532,-0.637 0.524,-0.641 0.519,-0.645C0.514,-0.65 0.512,-0.657 0.512,-0.666L0.512,-0.724L0.611,-0.724ZM0.788,-0.724L0.788,-0.666C0.788,-0.657 0.786,-0.65 0.78,-0.645C0.775,-0.641 0.768,-0.637 0.759,-0.635L0.702,-0.623L0.689,-0.724L0.788,-0.724Z" style="fill:rgb(254,20,147);fill-rule:nonzero;"/>
                    </g>
                    <g transform="matrix(152.3594,0,0,152.3594,973.682588,425.059)">
                        <path d="M0.1,-0L0.1,-0.724L0.558,-0.724L0.558,-0.616L0.239,-0.616L0.239,-0.402L0.508,-0.402L0.508,-0.294L0.239,-0.294L0.239,-0L0.1,-0ZM0.46,-0.639L0.558,-0.616L0.558,-0.528L0.506,-0.528C0.497,-0.528 0.491,-0.53 0.486,-0.535C0.481,-0.54 0.478,-0.547 0.475,-0.557L0.46,-0.639ZM0.125,-0.724L0.112,-0.623L0.055,-0.635C0.046,-0.637 0.038,-0.641 0.033,-0.645C0.028,-0.65 0.026,-0.657 0.026,-0.666L0.026,-0.724L0.125,-0.724ZM0.026,-0L0.026,-0.058C0.026,-0.067 0.028,-0.074 0.033,-0.079C0.038,-0.084 0.046,-0.087 0.055,-0.089L0.112,-0.101L0.125,-0L0.026,-0ZM0.215,-0L0.228,-0.101L0.285,-0.089C0.294,-0.087 0.301,-0.084 0.307,-0.079C0.312,-0.074 0.314,-0.067 0.314,-0.058L0.314,-0L0.215,-0Z" style="fill:rgb(254,20,147);fill-rule:nonzero;"/>
                    </g>
                    <g transform="matrix(152.3594,0,0,152.3594,1064.184072,425.059)">
                        <path d="M0.389,0.008C0.334,0.008 0.284,-0.001 0.239,-0.02C0.195,-0.038 0.156,-0.064 0.123,-0.098C0.092,-0.131 0.067,-0.17 0.049,-0.215C0.03,-0.26 0.021,-0.309 0.021,-0.362C0.021,-0.415 0.03,-0.464 0.049,-0.509C0.067,-0.555 0.092,-0.594 0.123,-0.627C0.156,-0.66 0.195,-0.685 0.239,-0.704C0.284,-0.723 0.334,-0.732 0.389,-0.732C0.444,-0.732 0.495,-0.722 0.54,-0.704C0.586,-0.685 0.625,-0.659 0.656,-0.626C0.689,-0.593 0.714,-0.554 0.731,-0.509C0.748,-0.464 0.757,-0.415 0.757,-0.362C0.757,-0.309 0.748,-0.26 0.731,-0.215C0.714,-0.17 0.689,-0.131 0.656,-0.098C0.625,-0.064 0.586,-0.038 0.54,-0.02C0.494,-0.001 0.444,0.008 0.389,0.008ZM0.389,-0.108C0.437,-0.108 0.478,-0.119 0.511,-0.139C0.545,-0.16 0.571,-0.189 0.589,-0.227C0.606,-0.265 0.615,-0.31 0.615,-0.362C0.615,-0.414 0.606,-0.458 0.588,-0.496C0.57,-0.534 0.545,-0.564 0.511,-0.585C0.478,-0.605 0.437,-0.616 0.389,-0.616C0.342,-0.616 0.302,-0.606 0.268,-0.585C0.234,-0.564 0.208,-0.534 0.19,-0.496C0.172,-0.458 0.163,-0.413 0.163,-0.362C0.163,-0.31 0.172,-0.266 0.19,-0.228C0.208,-0.189 0.234,-0.16 0.268,-0.139C0.302,-0.119 0.342,-0.108 0.389,-0.108Z" style="fill:rgb(254,20,147);fill-rule:nonzero;"/>
                    </g>
                    <g transform="matrix(152.3594,0,0,152.3594,1182.262607,425.059)">
                        <path d="M0.1,-0L0.1,-0.724L0.323,-0.724C0.381,-0.724 0.43,-0.716 0.472,-0.701C0.514,-0.686 0.546,-0.663 0.569,-0.633C0.591,-0.602 0.603,-0.563 0.603,-0.515C0.603,-0.482 0.597,-0.452 0.584,-0.425C0.571,-0.398 0.553,-0.374 0.529,-0.355C0.506,-0.335 0.477,-0.32 0.444,-0.309C0.462,-0.3 0.478,-0.286 0.49,-0.267L0.668,-0L0.544,-0C0.52,-0 0.503,-0.009 0.493,-0.027L0.344,-0.258C0.338,-0.267 0.332,-0.273 0.325,-0.277C0.318,-0.281 0.308,-0.282 0.295,-0.282L0.239,-0.282L0.239,-0L0.1,-0ZM0.239,-0.379L0.321,-0.379C0.369,-0.379 0.406,-0.39 0.431,-0.413C0.456,-0.436 0.468,-0.466 0.468,-0.505C0.468,-0.541 0.456,-0.569 0.432,-0.589C0.409,-0.609 0.372,-0.618 0.323,-0.618L0.239,-0.618L0.239,-0.379ZM0.577,-0L0.524,-0.114L0.593,-0.1L0.577,-0ZM0.026,-0L0.026,-0.058C0.026,-0.067 0.028,-0.074 0.033,-0.079C0.038,-0.084 0.046,-0.087 0.055,-0.089L0.112,-0.101L0.125,-0L0.026,-0ZM0.125,-0.724L0.112,-0.623L0.055,-0.635C0.046,-0.637 0.038,-0.641 0.033,-0.645C0.028,-0.65 0.026,-0.657 0.026,-0.666L0.026,-0.724L0.125,-0.724ZM0.215,-0L0.227,-0.101L0.285,-0.089C0.294,-0.087 0.301,-0.084 0.306,-0.079C0.311,-0.074 0.314,-0.067 0.314,-0.058L0.314,-0L0.215,-0ZM0.577,-0L0.59,-0.101L0.647,-0.089C0.656,-0.087 0.663,-0.084 0.668,-0.079C0.674,-0.074 0.676,-0.067 0.676,-0.058L0.676,-0L0.577,-0Z" style="fill:rgb(254,20,147);fill-rule:nonzero;"/>
                    </g>
                    <g transform="matrix(152.3594,0,0,152.3594,1286.324077,425.059)">
                        <path d="M0.1,-0L0.1,-0.724L0.205,-0.724C0.217,-0.724 0.227,-0.723 0.233,-0.721C0.239,-0.719 0.245,-0.712 0.251,-0.702L0.465,-0.301C0.471,-0.29 0.476,-0.279 0.481,-0.268C0.486,-0.256 0.491,-0.245 0.495,-0.233C0.499,-0.243 0.504,-0.254 0.51,-0.267C0.515,-0.279 0.521,-0.291 0.526,-0.303L0.737,-0.702C0.743,-0.712 0.749,-0.719 0.756,-0.721C0.762,-0.723 0.771,-0.724 0.784,-0.724L0.888,-0.724L0.888,-0L0.767,-0L0.767,-0.466C0.767,-0.474 0.767,-0.484 0.767,-0.493C0.768,-0.503 0.768,-0.513 0.769,-0.523L0.553,-0.117C0.543,-0.097 0.527,-0.087 0.505,-0.087L0.486,-0.087C0.464,-0.087 0.448,-0.097 0.437,-0.117L0.218,-0.524C0.22,-0.514 0.221,-0.503 0.221,-0.493C0.222,-0.483 0.222,-0.474 0.222,-0.466L0.222,-0L0.1,-0ZM0.026,-0L0.026,-0.058C0.026,-0.067 0.028,-0.074 0.033,-0.079C0.038,-0.084 0.046,-0.087 0.055,-0.089L0.112,-0.101L0.125,-0L0.026,-0ZM0.202,-0L0.215,-0.101L0.273,-0.089C0.282,-0.087 0.289,-0.084 0.294,-0.079C0.299,-0.074 0.302,-0.067 0.302,-0.058L0.302,-0L0.202,-0ZM0.125,-0.724L0.112,-0.623L0.055,-0.635C0.046,-0.637 0.038,-0.641 0.033,-0.645C0.028,-0.65 0.026,-0.657 0.026,-0.666L0.026,-0.724L0.125,-0.724ZM0.687,-0L0.687,-0.058C0.687,-0.067 0.689,-0.074 0.695,-0.079C0.7,-0.084 0.707,-0.087 0.716,-0.089L0.773,-0.101L0.786,-0L0.687,-0ZM0.864,-0L0.876,-0.101L0.934,-0.089C0.943,-0.087 0.95,-0.084 0.955,-0.079C0.96,-0.074 0.963,-0.067 0.963,-0.058L0.963,-0L0.864,-0ZM0.963,-0.724L0.963,-0.666C0.963,-0.657 0.96,-0.65 0.955,-0.645C0.95,-0.641 0.943,-0.637 0.934,-0.635L0.876,-0.623L0.864,-0.724L0.963,-0.724Z" style="fill:rgb(254,20,147);fill-rule:nonzero;"/>
                    </g>
                    <g transform="matrix(152.3594,0,0,152.3594,1436.398086,425.059)">
                        <path d="M0.04,-0L0.324,-0.724L0.465,-0.724L0.749,-0L0.642,-0C0.63,-0 0.62,-0.003 0.612,-0.009C0.604,-0.015 0.599,-0.022 0.596,-0.031L0.422,-0.512C0.418,-0.525 0.413,-0.538 0.408,-0.552C0.404,-0.566 0.399,-0.581 0.395,-0.599C0.39,-0.581 0.385,-0.566 0.38,-0.552C0.376,-0.539 0.371,-0.525 0.367,-0.511L0.193,-0.031C0.19,-0.023 0.185,-0.016 0.177,-0.01C0.169,-0.003 0.159,-0 0.147,-0L0.04,-0ZM0.129,-0L0.129,-0.067L0.221,-0.067L0.221,-0L0.129,-0ZM0.218,-0.199L0.235,-0.295L0.548,-0.295L0.565,-0.199L0.218,-0.199ZM0.558,-0L0.558,-0.067L0.656,-0.067L0.656,-0L0.558,-0ZM0.01,-0L0.01,-0.058C0.01,-0.067 0.013,-0.074 0.018,-0.079C0.023,-0.084 0.03,-0.087 0.039,-0.089L0.097,-0.101L0.109,-0L0.01,-0ZM0.178,-0L0.191,-0.101L0.248,-0.089C0.257,-0.087 0.264,-0.084 0.27,-0.079C0.275,-0.074 0.277,-0.067 0.277,-0.058L0.277,-0L0.178,-0ZM0.511,-0L0.511,-0.058C0.511,-0.067 0.514,-0.074 0.519,-0.079C0.524,-0.084 0.531,-0.087 0.54,-0.089L0.598,-0.101L0.61,-0L0.511,-0ZM0.679,-0L0.692,-0.101L0.749,-0.089C0.758,-0.087 0.765,-0.084 0.771,-0.079C0.776,-0.074 0.778,-0.067 0.778,-0.058L0.778,-0L0.679,-0Z" style="fill:rgb(254,20,147);fill-rule:nonzero;"/>
                    </g>
                    <g transform="matrix(152.3594,0,0,152.3594,1544.725619,425.059)">
                        <path d="M0.232,-0L0.232,-0.612L0.015,-0.612L0.015,-0.724L0.586,-0.724L0.586,-0.612L0.37,-0.612L0.37,-0L0.232,-0ZM0.157,-0L0.157,-0.058C0.157,-0.067 0.16,-0.074 0.165,-0.079C0.17,-0.084 0.177,-0.087 0.186,-0.089L0.244,-0.101L0.256,-0L0.157,-0ZM0.346,-0L0.358,-0.101L0.416,-0.089C0.425,-0.087 0.432,-0.084 0.437,-0.079C0.442,-0.074 0.445,-0.067 0.445,-0.058L0.445,-0L0.346,-0ZM0.489,-0.636L0.586,-0.612L0.586,-0.524L0.535,-0.524C0.526,-0.524 0.519,-0.527 0.514,-0.532C0.509,-0.537 0.506,-0.544 0.504,-0.553L0.489,-0.636ZM0.112,-0.636L0.097,-0.553C0.096,-0.544 0.092,-0.537 0.087,-0.532C0.082,-0.527 0.075,-0.524 0.067,-0.524L0.015,-0.524L0.015,-0.612L0.112,-0.636Z" style="fill:rgb(254,20,147);fill-rule:nonzero;"/>
                    </g>
                    <g transform="matrix(152.3594,0,0,152.3594,1635.836541,425.059)">
                        <path d="M0.1,-0L0.1,-0.724L0.239,-0.724L0.239,-0L0.1,-0ZM0.026,-0L0.026,-0.058C0.026,-0.067 0.028,-0.074 0.033,-0.079C0.038,-0.084 0.046,-0.087 0.055,-0.089L0.112,-0.101L0.125,-0L0.026,-0ZM0.215,-0L0.228,-0.101L0.285,-0.089C0.294,-0.087 0.301,-0.084 0.307,-0.079C0.312,-0.074 0.314,-0.067 0.314,-0.058L0.314,-0L0.215,-0ZM0.125,-0.724L0.112,-0.623L0.055,-0.635C0.046,-0.637 0.038,-0.641 0.033,-0.645C0.028,-0.65 0.026,-0.657 0.026,-0.666L0.026,-0.724L0.125,-0.724ZM0.314,-0.724L0.314,-0.666C0.314,-0.657 0.312,-0.65 0.307,-0.645C0.301,-0.641 0.294,-0.637 0.285,-0.635L0.228,-0.623L0.215,-0.724L0.314,-0.724Z" style="fill:rgb(254,20,147);fill-rule:nonzero;"/>
                    </g>
                    <g transform="matrix(152.3594,0,0,152.3594,1687.181658,425.059)">
                        <path d="M0.389,0.008C0.334,0.008 0.284,-0.001 0.239,-0.02C0.195,-0.038 0.156,-0.064 0.123,-0.098C0.092,-0.131 0.067,-0.17 0.049,-0.215C0.03,-0.26 0.021,-0.309 0.021,-0.362C0.021,-0.415 0.03,-0.464 0.049,-0.509C0.067,-0.555 0.092,-0.594 0.123,-0.627C0.156,-0.66 0.195,-0.685 0.239,-0.704C0.284,-0.723 0.334,-0.732 0.389,-0.732C0.444,-0.732 0.495,-0.722 0.54,-0.704C0.586,-0.685 0.625,-0.659 0.656,-0.626C0.689,-0.593 0.714,-0.554 0.731,-0.509C0.748,-0.464 0.757,-0.415 0.757,-0.362C0.757,-0.309 0.748,-0.26 0.731,-0.215C0.714,-0.17 0.689,-0.131 0.656,-0.098C0.625,-0.064 0.586,-0.038 0.54,-0.02C0.494,-0.001 0.444,0.008 0.389,0.008ZM0.389,-0.108C0.437,-0.108 0.478,-0.119 0.511,-0.139C0.545,-0.16 0.571,-0.189 0.589,-0.227C0.606,-0.265 0.615,-0.31 0.615,-0.362C0.615,-0.414 0.606,-0.458 0.588,-0.496C0.57,-0.534 0.545,-0.564 0.511,-0.585C0.478,-0.605 0.437,-0.616 0.389,-0.616C0.342,-0.616 0.302,-0.606 0.268,-0.585C0.234,-0.564 0.208,-0.534 0.19,-0.496C0.172,-0.458 0.163,-0.413 0.163,-0.362C0.163,-0.31 0.172,-0.266 0.19,-0.228C0.208,-0.189 0.234,-0.16 0.268,-0.139C0.302,-0.119 0.342,-0.108 0.389,-0.108Z" style="fill:rgb(254,20,147);fill-rule:nonzero;"/>
                    </g>
                    <g transform="matrix(152.3594,0,0,152.3594,1805.260193,425.059)">
                        <path d="M0.1,-0L0.1,-0.724L0.173,-0.724C0.184,-0.724 0.193,-0.722 0.199,-0.72C0.206,-0.717 0.212,-0.711 0.219,-0.702L0.595,-0.22C0.594,-0.232 0.593,-0.243 0.592,-0.254C0.592,-0.265 0.591,-0.276 0.591,-0.285L0.591,-0.724L0.713,-0.724L0.713,-0L0.642,-0C0.631,-0 0.622,-0.002 0.615,-0.005C0.608,-0.009 0.601,-0.015 0.593,-0.024L0.219,-0.503C0.22,-0.491 0.221,-0.482 0.221,-0.474C0.222,-0.466 0.222,-0.455 0.222,-0.443L0.222,-0L0.1,-0ZM0.026,-0L0.026,-0.058C0.026,-0.067 0.028,-0.074 0.033,-0.079C0.038,-0.084 0.046,-0.087 0.055,-0.089L0.112,-0.101L0.125,-0L0.026,-0ZM0.202,-0L0.215,-0.101L0.273,-0.089C0.282,-0.087 0.289,-0.084 0.294,-0.079C0.299,-0.074 0.302,-0.067 0.302,-0.058L0.302,-0L0.202,-0ZM0.125,-0.724L0.112,-0.623L0.055,-0.635C0.046,-0.637 0.038,-0.641 0.033,-0.645C0.028,-0.65 0.026,-0.657 0.026,-0.666L0.026,-0.724L0.125,-0.724ZM0.611,-0.724L0.598,-0.623L0.541,-0.635C0.532,-0.637 0.524,-0.641 0.519,-0.645C0.514,-0.65 0.512,-0.657 0.512,-0.666L0.512,-0.724L0.611,-0.724ZM0.788,-0.724L0.788,-0.666C0.788,-0.657 0.786,-0.65 0.78,-0.645C0.775,-0.641 0.768,-0.637 0.759,-0.635L0.702,-0.623L0.689,-0.724L0.788,-0.724Z" style="fill:rgb(254,20,147);fill-rule:nonzero;"/>
                    </g>
                    <g transform="matrix(152.3594,0,0,152.3594,1929.585464,425.059)">
                    </g>
                    <g transform="matrix(152.3594,0,0,152.3594,1966.608798,425.059)">
                        <path d="M0.25,0.008C0.212,0.008 0.176,-0.001 0.141,-0.018C0.107,-0.036 0.079,-0.06 0.057,-0.091C0.036,-0.122 0.025,-0.158 0.025,-0.2C0.025,-0.229 0.032,-0.257 0.045,-0.283C0.057,-0.309 0.075,-0.332 0.097,-0.353C0.119,-0.373 0.145,-0.39 0.172,-0.402C0.155,-0.427 0.142,-0.452 0.134,-0.475C0.125,-0.499 0.121,-0.523 0.121,-0.547C0.121,-0.582 0.13,-0.614 0.147,-0.641C0.164,-0.669 0.188,-0.691 0.218,-0.707C0.249,-0.724 0.285,-0.732 0.326,-0.732C0.363,-0.732 0.396,-0.725 0.425,-0.71C0.453,-0.695 0.476,-0.676 0.493,-0.652C0.509,-0.627 0.519,-0.6 0.522,-0.57L0.434,-0.553C0.428,-0.552 0.423,-0.553 0.419,-0.557C0.414,-0.561 0.41,-0.566 0.407,-0.573C0.404,-0.585 0.398,-0.596 0.391,-0.606C0.383,-0.615 0.374,-0.623 0.363,-0.628C0.353,-0.634 0.34,-0.637 0.326,-0.637C0.3,-0.637 0.279,-0.628 0.263,-0.611C0.247,-0.594 0.239,-0.573 0.239,-0.548C0.239,-0.527 0.244,-0.508 0.254,-0.489C0.264,-0.47 0.278,-0.451 0.297,-0.431L0.489,-0.232C0.499,-0.253 0.508,-0.275 0.514,-0.298C0.52,-0.321 0.524,-0.344 0.527,-0.368C0.527,-0.376 0.53,-0.383 0.535,-0.387C0.539,-0.392 0.545,-0.394 0.553,-0.394L0.633,-0.394C0.632,-0.35 0.626,-0.308 0.613,-0.268C0.601,-0.228 0.583,-0.191 0.56,-0.157L0.712,-0L0.588,-0C0.575,-0 0.565,-0.002 0.557,-0.005C0.548,-0.008 0.54,-0.014 0.531,-0.024L0.482,-0.074C0.451,-0.048 0.415,-0.028 0.376,-0.014C0.337,0.001 0.295,0.008 0.25,0.008ZM0.273,-0.092C0.302,-0.092 0.328,-0.096 0.351,-0.105C0.375,-0.115 0.396,-0.127 0.416,-0.143L0.229,-0.336C0.212,-0.325 0.198,-0.313 0.187,-0.299C0.176,-0.286 0.168,-0.272 0.162,-0.257C0.157,-0.242 0.155,-0.226 0.155,-0.209C0.155,-0.186 0.16,-0.165 0.17,-0.147C0.181,-0.13 0.195,-0.116 0.213,-0.106C0.231,-0.097 0.251,-0.092 0.273,-0.092Z" style="fill:rgb(254,20,147);fill-rule:nonzero;"/>
                    </g>
                    <g transform="matrix(152.3594,0,0,152.3594,2077.221722,425.059)">
                    </g>
                    <g transform="matrix(152.3594,0,0,152.3594,2114.245057,425.059)">
                        <path d="M0.1,-0L0.1,-0.724L0.339,-0.724C0.397,-0.724 0.447,-0.715 0.489,-0.698C0.53,-0.68 0.563,-0.654 0.586,-0.62C0.609,-0.585 0.62,-0.543 0.62,-0.493C0.62,-0.441 0.609,-0.398 0.586,-0.362C0.562,-0.327 0.53,-0.3 0.487,-0.282C0.445,-0.263 0.395,-0.254 0.339,-0.254L0.239,-0.254L0.239,-0L0.1,-0ZM0.239,-0.36L0.339,-0.36C0.37,-0.36 0.397,-0.365 0.418,-0.376C0.44,-0.386 0.456,-0.402 0.466,-0.421C0.477,-0.441 0.482,-0.465 0.482,-0.493C0.482,-0.532 0.47,-0.563 0.446,-0.585C0.422,-0.607 0.386,-0.618 0.339,-0.618L0.239,-0.618L0.239,-0.36ZM0.026,-0L0.026,-0.058C0.026,-0.067 0.028,-0.074 0.033,-0.079C0.038,-0.084 0.046,-0.087 0.055,-0.089L0.112,-0.101L0.125,-0L0.026,-0ZM0.125,-0.724L0.112,-0.623L0.055,-0.635C0.046,-0.637 0.038,-0.641 0.033,-0.645C0.028,-0.65 0.026,-0.657 0.026,-0.666L0.026,-0.724L0.125,-0.724ZM0.215,-0L0.227,-0.101L0.285,-0.089C0.294,-0.087 0.301,-0.084 0.306,-0.079C0.311,-0.074 0.314,-0.067 0.314,-0.058L0.314,-0L0.215,-0Z" style="fill:rgb(254,20,147);fill-rule:nonzero;"/>
                    </g>
                    <g transform="matrix(152.3594,0,0,152.3594,2211.602713,425.059)">
                        <path d="M0.397,0.008C0.336,0.008 0.283,-0.004 0.238,-0.03C0.193,-0.055 0.158,-0.09 0.133,-0.135C0.108,-0.18 0.096,-0.232 0.096,-0.29L0.096,-0.724L0.234,-0.724L0.234,-0.291C0.234,-0.255 0.24,-0.223 0.253,-0.196C0.265,-0.169 0.284,-0.147 0.309,-0.132C0.333,-0.117 0.363,-0.109 0.397,-0.109C0.432,-0.109 0.462,-0.117 0.486,-0.132C0.51,-0.147 0.528,-0.168 0.541,-0.195C0.554,-0.222 0.56,-0.254 0.56,-0.29L0.56,-0.724L0.698,-0.724L0.698,-0.29C0.698,-0.23 0.685,-0.178 0.66,-0.133C0.635,-0.089 0.6,-0.054 0.555,-0.029C0.51,-0.004 0.457,0.008 0.397,0.008ZM0.12,-0.724L0.107,-0.623L0.05,-0.635C0.041,-0.637 0.034,-0.641 0.028,-0.645C0.023,-0.65 0.021,-0.657 0.021,-0.666L0.021,-0.724L0.12,-0.724ZM0.309,-0.724L0.309,-0.666C0.309,-0.657 0.306,-0.65 0.301,-0.645C0.296,-0.641 0.289,-0.637 0.28,-0.635L0.222,-0.623L0.21,-0.724L0.309,-0.724ZM0.584,-0.724L0.571,-0.623L0.514,-0.635C0.505,-0.637 0.498,-0.641 0.493,-0.645C0.488,-0.65 0.485,-0.657 0.485,-0.666L0.485,-0.724L0.584,-0.724ZM0.773,-0.724L0.773,-0.666C0.773,-0.657 0.771,-0.65 0.765,-0.645C0.76,-0.641 0.753,-0.637 0.744,-0.635L0.687,-0.623L0.674,-0.724L0.773,-0.724Z" style="fill:rgb(254,20,147);fill-rule:nonzero;"/>
                    </g>
                    <g transform="matrix(152.3594,0,0,152.3594,2332.118999,425.059)">
                        <path d="M0.1,-0L0.1,-0.724L0.352,-0.724C0.407,-0.724 0.455,-0.717 0.495,-0.704C0.535,-0.691 0.566,-0.67 0.587,-0.642C0.608,-0.614 0.619,-0.577 0.619,-0.531C0.619,-0.507 0.614,-0.485 0.605,-0.465C0.595,-0.444 0.581,-0.426 0.562,-0.411C0.543,-0.395 0.519,-0.383 0.491,-0.374C0.54,-0.363 0.578,-0.344 0.602,-0.317C0.627,-0.29 0.639,-0.255 0.639,-0.213C0.639,-0.17 0.628,-0.132 0.607,-0.101C0.585,-0.069 0.554,-0.044 0.515,-0.026C0.476,-0.009 0.429,-0 0.376,-0L0.1,-0ZM0.238,-0.106L0.373,-0.106C0.418,-0.106 0.452,-0.116 0.472,-0.137C0.493,-0.157 0.503,-0.183 0.503,-0.216C0.503,-0.249 0.493,-0.273 0.472,-0.291C0.45,-0.308 0.417,-0.317 0.372,-0.317L0.238,-0.317L0.238,-0.106ZM0.238,-0.411L0.344,-0.411C0.373,-0.411 0.398,-0.414 0.418,-0.421C0.439,-0.428 0.455,-0.44 0.465,-0.455C0.476,-0.471 0.481,-0.49 0.481,-0.515C0.481,-0.552 0.471,-0.579 0.45,-0.595C0.429,-0.611 0.396,-0.618 0.352,-0.618L0.238,-0.618L0.238,-0.411ZM0.026,-0L0.026,-0.058C0.026,-0.067 0.028,-0.074 0.033,-0.079C0.038,-0.084 0.046,-0.087 0.055,-0.089L0.112,-0.101L0.125,-0L0.026,-0ZM0.125,-0.724L0.112,-0.623L0.055,-0.635C0.046,-0.637 0.038,-0.641 0.033,-0.645C0.028,-0.65 0.026,-0.657 0.026,-0.666L0.026,-0.724L0.125,-0.724Z" style="fill:rgb(254,20,147);fill-rule:nonzero;"/>
                    </g>
                    <g transform="matrix(152.3594,0,0,152.3594,2433.133281,425.059)">
                        <path d="M0.1,-0L0.1,-0.724L0.239,-0.724L0.239,-0.112L0.542,-0.112L0.542,-0L0.1,-0ZM0.445,-0.089L0.46,-0.171C0.462,-0.181 0.465,-0.188 0.47,-0.193C0.475,-0.198 0.482,-0.2 0.491,-0.2L0.542,-0.2L0.542,-0.112L0.445,-0.089ZM0.026,-0L0.026,-0.058C0.026,-0.067 0.028,-0.074 0.033,-0.079C0.038,-0.084 0.046,-0.087 0.055,-0.089L0.112,-0.101L0.125,-0L0.026,-0ZM0.125,-0.724L0.112,-0.623L0.055,-0.635C0.046,-0.637 0.038,-0.641 0.033,-0.645C0.028,-0.65 0.026,-0.657 0.026,-0.666L0.026,-0.724L0.125,-0.724ZM0.315,-0.724L0.315,-0.666C0.315,-0.657 0.312,-0.65 0.307,-0.645C0.302,-0.641 0.295,-0.637 0.286,-0.635L0.228,-0.623L0.216,-0.724L0.315,-0.724Z" style="fill:rgb(254,20,147);fill-rule:nonzero;"/>
                    </g>
                    <g transform="matrix(152.3594,0,0,152.3594,2516.778591,425.059)">
                        <path d="M0.1,-0L0.1,-0.724L0.239,-0.724L0.239,-0L0.1,-0ZM0.026,-0L0.026,-0.058C0.026,-0.067 0.028,-0.074 0.033,-0.079C0.038,-0.084 0.046,-0.087 0.055,-0.089L0.112,-0.101L0.125,-0L0.026,-0ZM0.215,-0L0.228,-0.101L0.285,-0.089C0.294,-0.087 0.301,-0.084 0.307,-0.079C0.312,-0.074 0.314,-0.067 0.314,-0.058L0.314,-0L0.215,-0ZM0.125,-0.724L0.112,-0.623L0.055,-0.635C0.046,-0.637 0.038,-0.641 0.033,-0.645C0.028,-0.65 0.026,-0.657 0.026,-0.666L0.026,-0.724L0.125,-0.724ZM0.314,-0.724L0.314,-0.666C0.314,-0.657 0.312,-0.65 0.307,-0.645C0.301,-0.641 0.294,-0.637 0.285,-0.635L0.228,-0.623L0.215,-0.724L0.314,-0.724Z" style="fill:rgb(254,20,147);fill-rule:nonzero;"/>
                    </g>
                    <g transform="matrix(152.3594,0,0,152.3594,2568.123709,425.059)">
                        <path d="M0.375,0.008C0.32,0.008 0.27,-0.001 0.227,-0.02C0.183,-0.038 0.146,-0.064 0.116,-0.097C0.085,-0.13 0.062,-0.17 0.046,-0.215C0.03,-0.26 0.021,-0.308 0.021,-0.359C0.021,-0.415 0.031,-0.465 0.049,-0.511C0.067,-0.556 0.092,-0.595 0.125,-0.628C0.158,-0.661 0.198,-0.686 0.244,-0.705C0.29,-0.723 0.34,-0.732 0.393,-0.732C0.423,-0.732 0.452,-0.73 0.479,-0.724C0.506,-0.719 0.532,-0.712 0.556,-0.703C0.58,-0.695 0.602,-0.686 0.623,-0.676L0.623,-0.587L0.555,-0.583C0.535,-0.593 0.511,-0.601 0.483,-0.607C0.455,-0.613 0.427,-0.616 0.4,-0.616C0.351,-0.616 0.308,-0.605 0.273,-0.584C0.237,-0.563 0.21,-0.533 0.191,-0.495C0.172,-0.457 0.163,-0.412 0.163,-0.361C0.163,-0.312 0.171,-0.269 0.189,-0.231C0.206,-0.192 0.232,-0.162 0.266,-0.14C0.3,-0.118 0.341,-0.107 0.39,-0.107C0.417,-0.107 0.443,-0.111 0.468,-0.12C0.492,-0.128 0.515,-0.142 0.537,-0.162C0.54,-0.165 0.544,-0.167 0.548,-0.169C0.552,-0.17 0.556,-0.171 0.56,-0.171C0.568,-0.171 0.574,-0.169 0.579,-0.163L0.634,-0.105C0.606,-0.069 0.57,-0.042 0.527,-0.022C0.483,-0.002 0.433,0.008 0.375,0.008ZM0.526,-0.61L0.623,-0.587L0.623,-0.499L0.571,-0.499C0.563,-0.499 0.556,-0.501 0.551,-0.506C0.546,-0.511 0.543,-0.519 0.541,-0.528L0.526,-0.61Z" style="fill:rgb(254,20,147);fill-rule:nonzero;"/>
                    </g>
                    <g transform="matrix(152.3594,0,0,152.3594,2669.44271,425.059)">
                    </g>
                    <g transform="matrix(152.3594,0,0,152.3594,2706.466044,425.059)">
                        <path d="M0.1,-0L0.1,-0.724L0.323,-0.724C0.381,-0.724 0.43,-0.716 0.472,-0.701C0.514,-0.686 0.546,-0.663 0.569,-0.633C0.591,-0.602 0.603,-0.563 0.603,-0.515C0.603,-0.482 0.597,-0.452 0.584,-0.425C0.571,-0.398 0.553,-0.374 0.529,-0.355C0.506,-0.335 0.477,-0.32 0.444,-0.309C0.462,-0.3 0.478,-0.286 0.49,-0.267L0.668,-0L0.544,-0C0.52,-0 0.503,-0.009 0.493,-0.027L0.344,-0.258C0.338,-0.267 0.332,-0.273 0.325,-0.277C0.318,-0.281 0.308,-0.282 0.295,-0.282L0.239,-0.282L0.239,-0L0.1,-0ZM0.239,-0.379L0.321,-0.379C0.369,-0.379 0.406,-0.39 0.431,-0.413C0.456,-0.436 0.468,-0.466 0.468,-0.505C0.468,-0.541 0.456,-0.569 0.432,-0.589C0.409,-0.609 0.372,-0.618 0.323,-0.618L0.239,-0.618L0.239,-0.379ZM0.577,-0L0.524,-0.114L0.593,-0.1L0.577,-0ZM0.026,-0L0.026,-0.058C0.026,-0.067 0.028,-0.074 0.033,-0.079C0.038,-0.084 0.046,-0.087 0.055,-0.089L0.112,-0.101L0.125,-0L0.026,-0ZM0.125,-0.724L0.112,-0.623L0.055,-0.635C0.046,-0.637 0.038,-0.641 0.033,-0.645C0.028,-0.65 0.026,-0.657 0.026,-0.666L0.026,-0.724L0.125,-0.724ZM0.215,-0L0.227,-0.101L0.285,-0.089C0.294,-0.087 0.301,-0.084 0.306,-0.079C0.311,-0.074 0.314,-0.067 0.314,-0.058L0.314,-0L0.215,-0ZM0.577,-0L0.59,-0.101L0.647,-0.089C0.656,-0.087 0.663,-0.084 0.668,-0.079C0.674,-0.074 0.676,-0.067 0.676,-0.058L0.676,-0L0.577,-0Z" style="fill:rgb(254,20,147);fill-rule:nonzero;"/>
                    </g>
                    <g transform="matrix(152.3594,0,0,152.3594,2810.527515,425.059)">
                        <path d="M0.1,-0L0.1,-0.724L0.558,-0.724L0.558,-0.616L0.239,-0.616L0.239,-0.416L0.481,-0.416L0.481,-0.312L0.239,-0.312L0.239,-0.108L0.558,-0.108L0.558,-0L0.1,-0ZM0.46,-0.085L0.475,-0.167C0.478,-0.177 0.481,-0.184 0.486,-0.189C0.491,-0.194 0.497,-0.196 0.506,-0.196L0.558,-0.196L0.558,-0.108L0.46,-0.085ZM0.46,-0.639L0.558,-0.616L0.558,-0.528L0.506,-0.528C0.497,-0.528 0.491,-0.53 0.486,-0.535C0.481,-0.54 0.478,-0.547 0.475,-0.557L0.46,-0.639ZM0.125,-0.724L0.113,-0.623L0.055,-0.635C0.046,-0.637 0.039,-0.641 0.034,-0.645C0.029,-0.65 0.026,-0.657 0.026,-0.666L0.026,-0.724L0.125,-0.724ZM0.026,-0L0.026,-0.058C0.026,-0.067 0.028,-0.074 0.033,-0.079C0.038,-0.084 0.046,-0.087 0.055,-0.089L0.112,-0.101L0.125,-0L0.026,-0Z" style="fill:rgb(254,20,147);fill-rule:nonzero;"/>
                    </g>
                    <g transform="matrix(152.3594,0,0,152.3594,2900.876639,425.059)">
                        <path d="M0.1,-0L0.1,-0.724L0.239,-0.724L0.239,-0.112L0.542,-0.112L0.542,-0L0.1,-0ZM0.445,-0.089L0.46,-0.171C0.462,-0.181 0.465,-0.188 0.47,-0.193C0.475,-0.198 0.482,-0.2 0.491,-0.2L0.542,-0.2L0.542,-0.112L0.445,-0.089ZM0.026,-0L0.026,-0.058C0.026,-0.067 0.028,-0.074 0.033,-0.079C0.038,-0.084 0.046,-0.087 0.055,-0.089L0.112,-0.101L0.125,-0L0.026,-0ZM0.125,-0.724L0.112,-0.623L0.055,-0.635C0.046,-0.637 0.038,-0.641 0.033,-0.645C0.028,-0.65 0.026,-0.657 0.026,-0.666L0.026,-0.724L0.125,-0.724ZM0.315,-0.724L0.315,-0.666C0.315,-0.657 0.312,-0.65 0.307,-0.645C0.302,-0.641 0.295,-0.637 0.286,-0.635L0.228,-0.623L0.216,-0.724L0.315,-0.724Z" style="fill:rgb(254,20,147);fill-rule:nonzero;"/>
                    </g>
                    <g transform="matrix(152.3594,0,0,152.3594,2984.521949,425.059)">
                        <path d="M0.04,-0L0.324,-0.724L0.465,-0.724L0.749,-0L0.642,-0C0.63,-0 0.62,-0.003 0.612,-0.009C0.604,-0.015 0.599,-0.022 0.596,-0.031L0.422,-0.512C0.418,-0.525 0.413,-0.538 0.408,-0.552C0.404,-0.566 0.399,-0.581 0.395,-0.599C0.39,-0.581 0.385,-0.566 0.38,-0.552C0.376,-0.539 0.371,-0.525 0.367,-0.511L0.193,-0.031C0.19,-0.023 0.185,-0.016 0.177,-0.01C0.169,-0.003 0.159,-0 0.147,-0L0.04,-0ZM0.129,-0L0.129,-0.067L0.221,-0.067L0.221,-0L0.129,-0ZM0.218,-0.199L0.235,-0.295L0.548,-0.295L0.565,-0.199L0.218,-0.199ZM0.558,-0L0.558,-0.067L0.656,-0.067L0.656,-0L0.558,-0ZM0.01,-0L0.01,-0.058C0.01,-0.067 0.013,-0.074 0.018,-0.079C0.023,-0.084 0.03,-0.087 0.039,-0.089L0.097,-0.101L0.109,-0L0.01,-0ZM0.178,-0L0.191,-0.101L0.248,-0.089C0.257,-0.087 0.264,-0.084 0.27,-0.079C0.275,-0.074 0.277,-0.067 0.277,-0.058L0.277,-0L0.178,-0ZM0.511,-0L0.511,-0.058C0.511,-0.067 0.514,-0.074 0.519,-0.079C0.524,-0.084 0.531,-0.087 0.54,-0.089L0.598,-0.101L0.61,-0L0.511,-0ZM0.679,-0L0.692,-0.101L0.749,-0.089C0.758,-0.087 0.765,-0.084 0.771,-0.079C0.776,-0.074 0.778,-0.067 0.778,-0.058L0.778,-0L0.679,-0Z" style="fill:rgb(254,20,147);fill-rule:nonzero;"/>
                    </g>
                    <g transform="matrix(152.3594,0,0,152.3594,3092.849483,425.059)">
                        <path d="M0.232,-0L0.232,-0.612L0.015,-0.612L0.015,-0.724L0.586,-0.724L0.586,-0.612L0.37,-0.612L0.37,-0L0.232,-0ZM0.157,-0L0.157,-0.058C0.157,-0.067 0.16,-0.074 0.165,-0.079C0.17,-0.084 0.177,-0.087 0.186,-0.089L0.244,-0.101L0.256,-0L0.157,-0ZM0.346,-0L0.358,-0.101L0.416,-0.089C0.425,-0.087 0.432,-0.084 0.437,-0.079C0.442,-0.074 0.445,-0.067 0.445,-0.058L0.445,-0L0.346,-0ZM0.489,-0.636L0.586,-0.612L0.586,-0.524L0.535,-0.524C0.526,-0.524 0.519,-0.527 0.514,-0.532C0.509,-0.537 0.506,-0.544 0.504,-0.553L0.489,-0.636ZM0.112,-0.636L0.097,-0.553C0.096,-0.544 0.092,-0.537 0.087,-0.532C0.082,-0.527 0.075,-0.524 0.067,-0.524L0.015,-0.524L0.015,-0.612L0.112,-0.636Z" style="fill:rgb(254,20,147);fill-rule:nonzero;"/>
                    </g>
                    <g transform="matrix(152.3594,0,0,152.3594,3183.960404,425.059)">
                        <path d="M0.1,-0L0.1,-0.724L0.239,-0.724L0.239,-0L0.1,-0ZM0.026,-0L0.026,-0.058C0.026,-0.067 0.028,-0.074 0.033,-0.079C0.038,-0.084 0.046,-0.087 0.055,-0.089L0.112,-0.101L0.125,-0L0.026,-0ZM0.215,-0L0.228,-0.101L0.285,-0.089C0.294,-0.087 0.301,-0.084 0.307,-0.079C0.312,-0.074 0.314,-0.067 0.314,-0.058L0.314,-0L0.215,-0ZM0.125,-0.724L0.112,-0.623L0.055,-0.635C0.046,-0.637 0.038,-0.641 0.033,-0.645C0.028,-0.65 0.026,-0.657 0.026,-0.666L0.026,-0.724L0.125,-0.724ZM0.314,-0.724L0.314,-0.666C0.314,-0.657 0.312,-0.65 0.307,-0.645C0.301,-0.641 0.294,-0.637 0.285,-0.635L0.228,-0.623L0.215,-0.724L0.314,-0.724Z" style="fill:rgb(254,20,147);fill-rule:nonzero;"/>
                    </g>
                    <g transform="matrix(152.3594,0,0,152.3594,3235.305522,425.059)">
                        <path d="M0.389,0.008C0.334,0.008 0.284,-0.001 0.239,-0.02C0.195,-0.038 0.156,-0.064 0.123,-0.098C0.092,-0.131 0.067,-0.17 0.049,-0.215C0.03,-0.26 0.021,-0.309 0.021,-0.362C0.021,-0.415 0.03,-0.464 0.049,-0.509C0.067,-0.555 0.092,-0.594 0.123,-0.627C0.156,-0.66 0.195,-0.685 0.239,-0.704C0.284,-0.723 0.334,-0.732 0.389,-0.732C0.444,-0.732 0.495,-0.722 0.54,-0.704C0.586,-0.685 0.625,-0.659 0.656,-0.626C0.689,-0.593 0.714,-0.554 0.731,-0.509C0.748,-0.464 0.757,-0.415 0.757,-0.362C0.757,-0.309 0.748,-0.26 0.731,-0.215C0.714,-0.17 0.689,-0.131 0.656,-0.098C0.625,-0.064 0.586,-0.038 0.54,-0.02C0.494,-0.001 0.444,0.008 0.389,0.008ZM0.389,-0.108C0.437,-0.108 0.478,-0.119 0.511,-0.139C0.545,-0.16 0.571,-0.189 0.589,-0.227C0.606,-0.265 0.615,-0.31 0.615,-0.362C0.615,-0.414 0.606,-0.458 0.588,-0.496C0.57,-0.534 0.545,-0.564 0.511,-0.585C0.478,-0.605 0.437,-0.616 0.389,-0.616C0.342,-0.616 0.302,-0.606 0.268,-0.585C0.234,-0.564 0.208,-0.534 0.19,-0.496C0.172,-0.458 0.163,-0.413 0.163,-0.362C0.163,-0.31 0.172,-0.266 0.19,-0.228C0.208,-0.189 0.234,-0.16 0.268,-0.139C0.302,-0.119 0.342,-0.108 0.389,-0.108Z" style="fill:rgb(254,20,147);fill-rule:nonzero;"/>
                    </g>
                    <g transform="matrix(152.3594,0,0,152.3594,3353.384057,425.059)">
                        <path d="M0.1,-0L0.1,-0.724L0.173,-0.724C0.184,-0.724 0.193,-0.722 0.199,-0.72C0.206,-0.717 0.212,-0.711 0.219,-0.702L0.595,-0.22C0.594,-0.232 0.593,-0.243 0.592,-0.254C0.592,-0.265 0.591,-0.276 0.591,-0.285L0.591,-0.724L0.713,-0.724L0.713,-0L0.642,-0C0.631,-0 0.622,-0.002 0.615,-0.005C0.608,-0.009 0.601,-0.015 0.593,-0.024L0.219,-0.503C0.22,-0.491 0.221,-0.482 0.221,-0.474C0.222,-0.466 0.222,-0.455 0.222,-0.443L0.222,-0L0.1,-0ZM0.026,-0L0.026,-0.058C0.026,-0.067 0.028,-0.074 0.033,-0.079C0.038,-0.084 0.046,-0.087 0.055,-0.089L0.112,-0.101L0.125,-0L0.026,-0ZM0.202,-0L0.215,-0.101L0.273,-0.089C0.282,-0.087 0.289,-0.084 0.294,-0.079C0.299,-0.074 0.302,-0.067 0.302,-0.058L0.302,-0L0.202,-0ZM0.125,-0.724L0.112,-0.623L0.055,-0.635C0.046,-0.637 0.038,-0.641 0.033,-0.645C0.028,-0.65 0.026,-0.657 0.026,-0.666L0.026,-0.724L0.125,-0.724ZM0.611,-0.724L0.598,-0.623L0.541,-0.635C0.532,-0.637 0.524,-0.641 0.519,-0.645C0.514,-0.65 0.512,-0.657 0.512,-0.666L0.512,-0.724L0.611,-0.724ZM0.788,-0.724L0.788,-0.666C0.788,-0.657 0.786,-0.65 0.78,-0.645C0.775,-0.641 0.768,-0.637 0.759,-0.635L0.702,-0.623L0.689,-0.724L0.788,-0.724Z" style="fill:rgb(254,20,147);fill-rule:nonzero;"/>
                    </g>
                    <g transform="matrix(152.3594,0,0,152.3594,3477.709327,425.059)">
                        <path d="M0.265,0.008C0.238,0.008 0.211,0.006 0.185,0.003C0.16,0 0.136,-0.004 0.112,-0.01C0.089,-0.016 0.068,-0.023 0.047,-0.03L0.047,-0.129L0.111,-0.136C0.14,-0.122 0.167,-0.114 0.193,-0.109C0.218,-0.105 0.245,-0.103 0.272,-0.103C0.296,-0.103 0.317,-0.107 0.335,-0.115C0.352,-0.123 0.366,-0.135 0.375,-0.15C0.385,-0.166 0.39,-0.185 0.39,-0.206C0.39,-0.226 0.385,-0.242 0.375,-0.255C0.366,-0.267 0.353,-0.277 0.336,-0.285C0.32,-0.293 0.302,-0.3 0.283,-0.306C0.263,-0.311 0.244,-0.317 0.223,-0.324C0.194,-0.334 0.167,-0.346 0.142,-0.361C0.116,-0.376 0.096,-0.397 0.08,-0.422C0.065,-0.447 0.057,-0.48 0.057,-0.521C0.057,-0.561 0.067,-0.596 0.087,-0.628C0.107,-0.66 0.135,-0.685 0.17,-0.704C0.206,-0.722 0.248,-0.732 0.296,-0.732C0.33,-0.732 0.366,-0.727 0.403,-0.717C0.44,-0.707 0.472,-0.693 0.501,-0.675L0.501,-0.595L0.429,-0.596C0.408,-0.603 0.387,-0.61 0.365,-0.614C0.344,-0.619 0.321,-0.621 0.297,-0.621C0.262,-0.621 0.234,-0.613 0.215,-0.596C0.196,-0.58 0.186,-0.558 0.186,-0.532C0.186,-0.509 0.195,-0.49 0.211,-0.477C0.228,-0.464 0.249,-0.453 0.275,-0.445C0.301,-0.436 0.327,-0.427 0.353,-0.418C0.384,-0.408 0.412,-0.395 0.437,-0.38C0.462,-0.365 0.482,-0.345 0.497,-0.32C0.512,-0.296 0.519,-0.264 0.519,-0.225C0.519,-0.181 0.509,-0.141 0.488,-0.105C0.468,-0.07 0.439,-0.042 0.401,-0.022C0.363,-0.002 0.318,0.008 0.265,0.008ZM0.404,-0.618L0.501,-0.595L0.501,-0.507L0.449,-0.507C0.441,-0.507 0.434,-0.51 0.429,-0.515C0.424,-0.52 0.421,-0.527 0.419,-0.536L0.404,-0.618ZM0.144,-0.106L0.047,-0.129L0.047,-0.217L0.099,-0.217C0.107,-0.217 0.114,-0.215 0.119,-0.21C0.124,-0.205 0.128,-0.198 0.129,-0.188L0.144,-0.106Z" style="fill:rgb(254,20,147);fill-rule:nonzero;"/>
                    </g>
                    <g transform="matrix(152.3594,0,0,152.3594,3563.33531,425.059)">
                    </g>
                </g>
            </g>
        </g>
    </g>
</svg>
