<?xml version="1.0" encoding="UTF-8" standalone="no"?>
<!DOCTYPE svg PUBLIC "-//W3C//DTD SVG 1.1//EN" "http://www.w3.org/Graphics/SVG/1.1/DTD/svg11.dtd">
<svg width="100%" height="100%" viewBox="0 0 7586 1702" version="1.1" xmlns="http://www.w3.org/2000/svg" xmlns:xlink="http://www.w3.org/1999/xlink" xml:space="preserve" xmlns:serif="http://www.serif.com/" style="fill-rule:evenodd;clip-rule:evenodd;stroke-linejoin:round;stroke-miterlimit:2;">
    <g transform="matrix(1,0,0,1,-10310,-638)">
        <g transform="matrix(5.142636,0,0,5.142636,9339.162088,50.9054)">
            <g id="AcademicAffairs_RecolorHorizontal" transform="matrix(0.194453,0,0,0.194453,-8898.39981,-36.086319)">
                <g id="LOGO">
                    <g transform="matrix(0,-4.166667,-4.166667,0,47583.122917,773.169583)">
                        <path d="M-204.094,-204.094C-316.812,-204.094 -408.188,-112.718 -408.188,-0.001C-408.188,112.717 -316.812,204.094 -204.094,204.094C-91.376,204.094 0,112.717 0,-0.001C0,-112.718 -91.376,-204.094 -204.094,-204.094" style="fill:rgb(246,247,248);fill-rule:nonzero;"/>
                    </g>
                    <g transform="matrix(4.166667,0,0,4.166667,47086.745417,1336.22125)">
                        <path d="M0,137.923L0,-0.001L119.445,-68.962L238.89,-0.001L238.89,137.923L119.445,206.885L0,137.923Z" style="fill:rgb(246,247,248);fill-rule:nonzero;"/>
                    </g>
                    <g transform="matrix(4.166667,0,0,4.166667,48082.125,1910.892917)">
                        <path d="M0,-137.923L0,0.001L-119.445,68.962L-139.723,57.254L-119.759,-68.779L-238.89,-114.509L-238.89,-137.923L-119.445,-206.885L0,-137.923Z" style="fill:rgb(0,103,79);fill-rule:nonzero;"/>
                    </g>
                    <g transform="matrix(4.166667,0,0,4.166667,47584.432083,2146.877083)">
                        <path d="M0,-251.192L108.77,-188.394L108.77,-62.798L0,0L-108.77,-62.798L-108.77,-188.394L0,-251.192Z" style="fill:rgb(246,247,248);fill-rule:nonzero;"/>
                    </g>
                    <g transform="matrix(-3.370938,2.449058,2.449058,3.370938,47228.004434,2059.06264)">
                        <path d="M-130.281,-34.318L0.123,-34.318L6.526,-48.695L-2.726,-61.429L-130.281,-34.318Z" style="fill:rgb(0,103,79);fill-rule:nonzero;"/>
                    </g>
                    <g transform="matrix(4.166667,0,0,4.166667,47583.127917,1624.324583)">
                        <path d="M0,-0.003L-119.131,12.519L-119.131,-12.522L0,-0.003Z" style="fill:rgb(0,103,79);fill-rule:nonzero;"/>
                    </g>
                    <g transform="matrix(4.166667,0,0,4.166667,48082.120833,1222.915417)">
                        <path d="M0,54.634C-15.063,54.634 -27.317,42.38 -27.317,27.317C-27.317,12.254 -15.063,0 0,0C15.063,0 27.317,12.254 27.317,27.317C27.317,42.38 15.063,54.634 0,54.634" style="fill:rgb(246,247,248);fill-rule:nonzero;"/>
                    </g>
                    <g transform="matrix(4.166667,0,0,4.166667,47583.127917,2014.87875)">
                        <path d="M0,-93.736L-75.907,0L-99.17,-13.432L0,-93.736Z" style="fill:rgb(0,103,79);fill-rule:nonzero;"/>
                    </g>
                    <g transform="matrix(4.166667,0,0,4.166667,47158.699583,1377.76)">
                        <path d="M0,117.983L0,0.001L102.176,-58.991L204.352,0.001L204.352,117.983L102.176,176.974L0,117.983Z" style="fill:rgb(0,103,79);fill-rule:nonzero;"/>
                    </g>
                    <g transform="matrix(4.166667,0,0,4.166667,47583.127917,2080.26625)">
                        <path d="M0,-109.429L-48.722,0L-70.409,-12.519L0,-109.429Z" style="fill:rgb(0,103,79);fill-rule:nonzero;"/>
                    </g>
                    <g transform="matrix(4.166667,0,0,4.166667,47086.749583,1624.31125)">
                        <path d="M0,-18.867L119.131,0L0,-12.518L0,-18.867Z" style="fill:rgb(246,247,248);fill-rule:nonzero;"/>
                    </g>
                    <g transform="matrix(4.166667,0,0,4.166667,47086.749583,1650.767917)">
                        <path d="M0,6.173L119.131,-6.349L0,12.522L0,6.173Z" style="fill:rgb(246,247,248);fill-rule:nonzero;"/>
                    </g>
                    <g transform="matrix(4.166667,0,0,4.166667,47086.749583,1654.776667)">
                        <path d="M0,38.418L119.131,-7.311L0,45.729L0,38.418Z" style="fill:rgb(246,247,248);fill-rule:nonzero;"/>
                    </g>
                    <g transform="matrix(4.166667,0,0,4.166667,47143.5425,1639.542917)">
                        <path d="M0,72.993L105.5,-3.655L6.33,76.648L0,72.993Z" style="fill:rgb(246,247,248);fill-rule:nonzero;"/>
                    </g>
                    <g transform="matrix(4.166667,0,0,4.166667,47266.85,1637.538333)">
                        <path d="M0,90.562L75.907,-3.174L5.498,93.736L0,90.562Z" style="fill:rgb(246,247,248);fill-rule:nonzero;"/>
                    </g>
                    <g transform="matrix(4.166667,0,0,4.166667,47380.12125,1637.54)">
                        <path d="M0,106.254L48.722,-3.175L5.495,109.429L0,106.254Z" style="fill:rgb(246,247,248);fill-rule:nonzero;"/>
                    </g>
                    <g transform="matrix(-3.6053,-2.08876,-2.08876,3.6053,47475.832549,1947.949169)">
                        <path d="M20.446,-73.522L178.872,-73.522L-58.947,-211.304L-59.29,63.387L20.446,-73.522Z" style="fill:rgb(246,247,248);fill-rule:nonzero;"/>
                    </g>
                    <g transform="matrix(4.166667,0,0,4.166667,47583.127917,1814.849583)">
                        <path d="M0,-45.729L-119.131,0L-119.131,-26.858L0,-45.729Z" style="fill:rgb(0,103,79);fill-rule:nonzero;"/>
                    </g>
                    <g transform="matrix(4.166667,0,0,4.166667,47583.127917,1433.774583)">
                        <path d="M0,45.729L-119.131,26.862L-119.131,0L0,45.729Z" style="fill:rgb(0,103,79);fill-rule:nonzero;"/>
                    </g>
                    <g transform="matrix(4.166667,0,0,4.166667,47086.749583,1531.635)">
                        <path d="M0,-23.487L11.993,-32.216L83.926,8.729L0,-23.487Z" style="fill:rgb(0,103,79);fill-rule:nonzero;"/>
                    </g>
                    <g transform="matrix(4.166667,0,0,4.166667,47583.127917,2149.449583)">
                        <path d="M0,-126.033L-19.963,0L-43.227,-13.429L0,-126.033Z" style="fill:rgb(0,103,79);fill-rule:nonzero;"/>
                    </g>
                    <g transform="matrix(4.166667,0,0,4.166667,47086.745417,1222.915417)">
                        <path d="M0,54.634C-15.063,54.634 -27.317,42.38 -27.317,27.317C-27.317,12.254 -15.063,0 0,0C15.063,0 27.317,12.254 27.317,27.317C27.317,42.38 15.063,54.634 0,54.634" style="fill:rgb(246,247,248);fill-rule:nonzero;"/>
                    </g>
                    <g transform="matrix(4.166667,0,0,4.166667,47499.9475,1779.47125)">
                        <path d="M0,88.795L13.381,75.365L14.065,0L0,88.795Z" style="fill:rgb(0,103,79);fill-rule:nonzero;"/>
                    </g>
                    <g transform="matrix(4.166667,0,0,4.166667,47584.432083,2084.418333)">
                        <path d="M0,54.634C-15.063,54.634 -27.317,42.38 -27.317,27.318C-27.317,12.255 -15.063,0 0,0C15.063,0 27.317,12.255 27.317,27.318C27.317,42.38 15.063,54.634 0,54.634" style="fill:rgb(246,247,248);fill-rule:nonzero;"/>
                    </g>
                    <g transform="matrix(4.166667,0,0,4.166667,47583.124167,1467.237917)">
                        <path d="M0,75.397C-20.787,75.397 -37.699,58.486 -37.699,37.699C-37.699,16.912 -20.787,0 0,0C20.788,0 37.699,16.912 37.699,37.699C37.699,58.486 20.788,75.397 0,75.397" style="fill:rgb(246,247,248);fill-rule:nonzero;"/>
                    </g>
                    <g transform="matrix(4.166667,0,0,4.166667,47086.745417,2198.242917)">
                        <path d="M0,-206.762L238.89,-206.762L119.445,0L119.131,-137.742L0,-206.762Z" style="fill:rgb(0,103,79);fill-rule:nonzero;"/>
                    </g>
                    <g transform="matrix(-3.605297,-2.088767,-2.088767,3.605297,47575.24947,1801.484975)">
                        <path d="M13.544,-48.415L117.638,-48.415L-38.692,-138.987L-38.916,41.66L13.544,-48.415Z" style="fill:rgb(246,247,248);fill-rule:nonzero;"/>
                    </g>
                    <g transform="matrix(0,-4.166667,-4.166667,0,47583.125833,1493.484583)">
                        <path d="M-31.4,-31.399C-48.741,-31.399 -62.797,-17.341 -62.797,0C-62.797,17.341 -48.741,31.4 -31.4,31.4C-14.058,31.4 -0.001,17.341 -0.001,0C-0.001,-17.341 -14.058,-31.399 -31.4,-31.399" style="fill:rgb(0,103,79);fill-rule:nonzero;"/>
                    </g>
                    <g transform="matrix(4.166667,0,0,4.166667,47583.124167,1537.96875)">
                        <path d="M0,41.446C-11.427,41.446 -20.723,32.15 -20.723,20.723C-20.723,9.297 -11.427,0 0,0C11.427,0 20.723,9.297 20.723,20.723C20.723,32.15 11.427,41.446 0,41.446" style="fill:rgb(246,247,248);fill-rule:nonzero;"/>
                    </g>
                    <g transform="matrix(4.166667,0,0,4.166667,47086.745417,1250.39125)">
                        <path d="M0,41.446C-11.427,41.446 -20.724,32.15 -20.724,20.722C-20.724,9.296 -11.427,0 0,0C11.427,0 20.723,9.296 20.723,20.722C20.723,32.15 11.427,41.446 0,41.446" style="fill:rgb(0,103,79);fill-rule:nonzero;"/>
                    </g>
                    <g transform="matrix(4.166667,0,0,4.166667,47086.745417,1294.871667)">
                        <path d="M0,20.095C-5.541,20.095 -10.048,15.588 -10.048,10.047C-10.048,4.507 -5.541,0 0,0C5.54,0 10.047,4.507 10.047,10.047C10.047,15.588 5.54,20.095 0,20.095" style="fill:rgb(246,247,248);fill-rule:nonzero;"/>
                    </g>
                    <g transform="matrix(4.166667,0,0,4.166667,48082.120833,1250.39125)">
                        <path d="M0,41.446C-11.427,41.446 -20.724,32.15 -20.724,20.722C-20.724,9.296 -11.427,0 0,0C11.427,0 20.724,9.296 20.724,20.722C20.724,32.15 11.427,41.446 0,41.446" style="fill:rgb(0,103,79);fill-rule:nonzero;"/>
                    </g>
                    <g transform="matrix(4.166667,0,0,4.166667,48081.221667,1294.871667)">
                        <path d="M0,20.095C-5.54,20.095 -10.047,15.588 -10.047,10.047C-10.047,4.507 -5.54,0 0,0C5.541,0 10.048,4.507 10.048,10.047C10.048,15.588 5.541,20.095 0,20.095" style="fill:rgb(246,247,248);fill-rule:nonzero;"/>
                    </g>
                    <g transform="matrix(4.166667,0,0,4.166667,47584.432083,2111.894583)">
                        <path d="M0,41.446C-11.427,41.446 -20.723,32.15 -20.723,20.723C-20.723,9.297 -11.427,0 0,0C11.427,0 20.724,9.297 20.724,20.723C20.724,32.15 11.427,41.446 0,41.446" style="fill:rgb(0,103,79);fill-rule:nonzero;"/>
                    </g>
                    <g transform="matrix(4.166667,0,0,4.166667,47584.432083,2156.374583)">
                        <path d="M0,20.096C-5.54,20.096 -10.047,15.588 -10.047,10.048C-10.047,4.507 -5.54,0 0,0C5.54,0 10.048,4.507 10.048,10.048C10.048,15.588 5.54,20.096 0,20.096" style="fill:rgb(246,247,248);fill-rule:nonzero;"/>
                    </g>
                </g>
                <g id="LOGOTYPE" transform="matrix(5.107653,0,0,5.107653,44926.978294,-265.798699)">
                    <g transform="matrix(152.3594,0,0,152.3594,798.0122,425.059)">
                        <path d="M0.1,-0L0.1,-0.724L0.205,-0.724C0.217,-0.724 0.227,-0.723 0.233,-0.721C0.239,-0.719 0.245,-0.712 0.251,-0.702L0.465,-0.301C0.471,-0.29 0.476,-0.279 0.481,-0.268C0.486,-0.256 0.491,-0.245 0.495,-0.233C0.499,-0.243 0.504,-0.254 0.51,-0.267C0.515,-0.279 0.521,-0.291 0.526,-0.303L0.737,-0.702C0.743,-0.712 0.749,-0.719 0.756,-0.721C0.762,-0.723 0.771,-0.724 0.784,-0.724L0.888,-0.724L0.888,-0L0.767,-0L0.767,-0.466C0.767,-0.474 0.767,-0.484 0.767,-0.493C0.768,-0.503 0.768,-0.513 0.769,-0.523L0.553,-0.117C0.543,-0.097 0.527,-0.087 0.505,-0.087L0.486,-0.087C0.464,-0.087 0.448,-0.097 0.437,-0.117L0.218,-0.524C0.22,-0.514 0.221,-0.503 0.221,-0.493C0.222,-0.483 0.222,-0.474 0.222,-0.466L0.222,-0L0.1,-0ZM0.026,-0L0.026,-0.058C0.026,-0.067 0.028,-0.074 0.033,-0.079C0.038,-0.084 0.046,-0.087 0.055,-0.089L0.112,-0.101L0.125,-0L0.026,-0ZM0.202,-0L0.215,-0.101L0.273,-0.089C0.282,-0.087 0.289,-0.084 0.294,-0.079C0.299,-0.074 0.302,-0.067 0.302,-0.058L0.302,-0L0.202,-0ZM0.125,-0.724L0.112,-0.623L0.055,-0.635C0.046,-0.637 0.038,-0.641 0.033,-0.645C0.028,-0.65 0.026,-0.657 0.026,-0.666L0.026,-0.724L0.125,-0.724ZM0.687,-0L0.687,-0.058C0.687,-0.067 0.689,-0.074 0.695,-0.079C0.7,-0.084 0.707,-0.087 0.716,-0.089L0.773,-0.101L0.786,-0L0.687,-0ZM0.864,-0L0.876,-0.101L0.934,-0.089C0.943,-0.087 0.95,-0.084 0.955,-0.079C0.96,-0.074 0.963,-0.067 0.963,-0.058L0.963,-0L0.864,-0ZM0.963,-0.724L0.963,-0.666C0.963,-0.657 0.96,-0.65 0.955,-0.645C0.95,-0.641 0.943,-0.637 0.934,-0.635L0.876,-0.623L0.864,-0.724L0.963,-0.724Z" style="fill:rgb(0,103,79);fill-rule:nonzero;"/>
                    </g>
                    <g transform="matrix(152.3594,0,0,152.3594,948.086209,425.059)">
                        <path d="M0.1,-0L0.1,-0.724L0.558,-0.724L0.558,-0.616L0.239,-0.616L0.239,-0.416L0.481,-0.416L0.481,-0.312L0.239,-0.312L0.239,-0.108L0.558,-0.108L0.558,-0L0.1,-0ZM0.46,-0.085L0.475,-0.167C0.478,-0.177 0.481,-0.184 0.486,-0.189C0.491,-0.194 0.497,-0.196 0.506,-0.196L0.558,-0.196L0.558,-0.108L0.46,-0.085ZM0.46,-0.639L0.558,-0.616L0.558,-0.528L0.506,-0.528C0.497,-0.528 0.491,-0.53 0.486,-0.535C0.481,-0.54 0.478,-0.547 0.475,-0.557L0.46,-0.639ZM0.125,-0.724L0.113,-0.623L0.055,-0.635C0.046,-0.637 0.039,-0.641 0.034,-0.645C0.029,-0.65 0.026,-0.657 0.026,-0.666L0.026,-0.724L0.125,-0.724ZM0.026,-0L0.026,-0.058C0.026,-0.067 0.028,-0.074 0.033,-0.079C0.038,-0.084 0.046,-0.087 0.055,-0.089L0.112,-0.101L0.125,-0L0.026,-0Z" style="fill:rgb(0,103,79);fill-rule:nonzero;"/>
                    </g>
                    <g transform="matrix(152.3594,0,0,152.3594,1038.435333,425.059)">
                        <path d="M0.1,-0L0.1,-0.724L0.205,-0.724C0.217,-0.724 0.227,-0.723 0.233,-0.721C0.239,-0.719 0.245,-0.712 0.251,-0.702L0.465,-0.301C0.471,-0.29 0.476,-0.279 0.481,-0.268C0.486,-0.256 0.491,-0.245 0.495,-0.233C0.499,-0.243 0.504,-0.254 0.51,-0.267C0.515,-0.279 0.521,-0.291 0.526,-0.303L0.737,-0.702C0.743,-0.712 0.749,-0.719 0.756,-0.721C0.762,-0.723 0.771,-0.724 0.784,-0.724L0.888,-0.724L0.888,-0L0.767,-0L0.767,-0.466C0.767,-0.474 0.767,-0.484 0.767,-0.493C0.768,-0.503 0.768,-0.513 0.769,-0.523L0.553,-0.117C0.543,-0.097 0.527,-0.087 0.505,-0.087L0.486,-0.087C0.464,-0.087 0.448,-0.097 0.437,-0.117L0.218,-0.524C0.22,-0.514 0.221,-0.503 0.221,-0.493C0.222,-0.483 0.222,-0.474 0.222,-0.466L0.222,-0L0.1,-0ZM0.026,-0L0.026,-0.058C0.026,-0.067 0.028,-0.074 0.033,-0.079C0.038,-0.084 0.046,-0.087 0.055,-0.089L0.112,-0.101L0.125,-0L0.026,-0ZM0.202,-0L0.215,-0.101L0.273,-0.089C0.282,-0.087 0.289,-0.084 0.294,-0.079C0.299,-0.074 0.302,-0.067 0.302,-0.058L0.302,-0L0.202,-0ZM0.125,-0.724L0.112,-0.623L0.055,-0.635C0.046,-0.637 0.038,-0.641 0.033,-0.645C0.028,-0.65 0.026,-0.657 0.026,-0.666L0.026,-0.724L0.125,-0.724ZM0.687,-0L0.687,-0.058C0.687,-0.067 0.689,-0.074 0.695,-0.079C0.7,-0.084 0.707,-0.087 0.716,-0.089L0.773,-0.101L0.786,-0L0.687,-0ZM0.864,-0L0.876,-0.101L0.934,-0.089C0.943,-0.087 0.95,-0.084 0.955,-0.079C0.96,-0.074 0.963,-0.067 0.963,-0.058L0.963,-0L0.864,-0ZM0.963,-0.724L0.963,-0.666C0.963,-0.657 0.96,-0.65 0.955,-0.645C0.95,-0.641 0.943,-0.637 0.934,-0.635L0.876,-0.623L0.864,-0.724L0.963,-0.724Z" style="fill:rgb(0,103,79);fill-rule:nonzero;"/>
                    </g>
                    <g transform="matrix(152.3594,0,0,152.3594,1188.509342,425.059)">
                        <path d="M0.1,-0L0.1,-0.724L0.352,-0.724C0.407,-0.724 0.455,-0.717 0.495,-0.704C0.535,-0.691 0.566,-0.67 0.587,-0.642C0.608,-0.614 0.619,-0.577 0.619,-0.531C0.619,-0.507 0.614,-0.485 0.605,-0.465C0.595,-0.444 0.581,-0.426 0.562,-0.411C0.543,-0.395 0.519,-0.383 0.491,-0.374C0.54,-0.363 0.578,-0.344 0.602,-0.317C0.627,-0.29 0.639,-0.255 0.639,-0.213C0.639,-0.17 0.628,-0.132 0.607,-0.101C0.585,-0.069 0.554,-0.044 0.515,-0.026C0.476,-0.009 0.429,-0 0.376,-0L0.1,-0ZM0.238,-0.106L0.373,-0.106C0.418,-0.106 0.452,-0.116 0.472,-0.137C0.493,-0.157 0.503,-0.183 0.503,-0.216C0.503,-0.249 0.493,-0.273 0.472,-0.291C0.45,-0.308 0.417,-0.317 0.372,-0.317L0.238,-0.317L0.238,-0.106ZM0.238,-0.411L0.344,-0.411C0.373,-0.411 0.398,-0.414 0.418,-0.421C0.439,-0.428 0.455,-0.44 0.465,-0.455C0.476,-0.471 0.481,-0.49 0.481,-0.515C0.481,-0.552 0.471,-0.579 0.45,-0.595C0.429,-0.611 0.396,-0.618 0.352,-0.618L0.238,-0.618L0.238,-0.411ZM0.026,-0L0.026,-0.058C0.026,-0.067 0.028,-0.074 0.033,-0.079C0.038,-0.084 0.046,-0.087 0.055,-0.089L0.112,-0.101L0.125,-0L0.026,-0ZM0.125,-0.724L0.112,-0.623L0.055,-0.635C0.046,-0.637 0.038,-0.641 0.033,-0.645C0.028,-0.65 0.026,-0.657 0.026,-0.666L0.026,-0.724L0.125,-0.724Z" style="fill:rgb(0,103,79);fill-rule:nonzero;"/>
                    </g>
                    <g transform="matrix(152.3594,0,0,152.3594,1289.523624,425.059)">
                        <path d="M0.1,-0L0.1,-0.724L0.558,-0.724L0.558,-0.616L0.239,-0.616L0.239,-0.416L0.481,-0.416L0.481,-0.312L0.239,-0.312L0.239,-0.108L0.558,-0.108L0.558,-0L0.1,-0ZM0.46,-0.085L0.475,-0.167C0.478,-0.177 0.481,-0.184 0.486,-0.189C0.491,-0.194 0.497,-0.196 0.506,-0.196L0.558,-0.196L0.558,-0.108L0.46,-0.085ZM0.46,-0.639L0.558,-0.616L0.558,-0.528L0.506,-0.528C0.497,-0.528 0.491,-0.53 0.486,-0.535C0.481,-0.54 0.478,-0.547 0.475,-0.557L0.46,-0.639ZM0.125,-0.724L0.113,-0.623L0.055,-0.635C0.046,-0.637 0.039,-0.641 0.034,-0.645C0.029,-0.65 0.026,-0.657 0.026,-0.666L0.026,-0.724L0.125,-0.724ZM0.026,-0L0.026,-0.058C0.026,-0.067 0.028,-0.074 0.033,-0.079C0.038,-0.084 0.046,-0.087 0.055,-0.089L0.112,-0.101L0.125,-0L0.026,-0Z" style="fill:rgb(0,103,79);fill-rule:nonzero;"/>
                    </g>
                    <g transform="matrix(152.3594,0,0,152.3594,1379.872749,425.059)">
                        <path d="M0.1,-0L0.1,-0.724L0.323,-0.724C0.381,-0.724 0.43,-0.716 0.472,-0.701C0.514,-0.686 0.546,-0.663 0.569,-0.633C0.591,-0.602 0.603,-0.563 0.603,-0.515C0.603,-0.482 0.597,-0.452 0.584,-0.425C0.571,-0.398 0.553,-0.374 0.529,-0.355C0.506,-0.335 0.477,-0.32 0.444,-0.309C0.462,-0.3 0.478,-0.286 0.49,-0.267L0.668,-0L0.544,-0C0.52,-0 0.503,-0.009 0.493,-0.027L0.344,-0.258C0.338,-0.267 0.332,-0.273 0.325,-0.277C0.318,-0.281 0.308,-0.282 0.295,-0.282L0.239,-0.282L0.239,-0L0.1,-0ZM0.239,-0.379L0.321,-0.379C0.369,-0.379 0.406,-0.39 0.431,-0.413C0.456,-0.436 0.468,-0.466 0.468,-0.505C0.468,-0.541 0.456,-0.569 0.432,-0.589C0.409,-0.609 0.372,-0.618 0.323,-0.618L0.239,-0.618L0.239,-0.379ZM0.577,-0L0.524,-0.114L0.593,-0.1L0.577,-0ZM0.026,-0L0.026,-0.058C0.026,-0.067 0.028,-0.074 0.033,-0.079C0.038,-0.084 0.046,-0.087 0.055,-0.089L0.112,-0.101L0.125,-0L0.026,-0ZM0.125,-0.724L0.112,-0.623L0.055,-0.635C0.046,-0.637 0.038,-0.641 0.033,-0.645C0.028,-0.65 0.026,-0.657 0.026,-0.666L0.026,-0.724L0.125,-0.724ZM0.215,-0L0.227,-0.101L0.285,-0.089C0.294,-0.087 0.301,-0.084 0.306,-0.079C0.311,-0.074 0.314,-0.067 0.314,-0.058L0.314,-0L0.215,-0ZM0.577,-0L0.59,-0.101L0.647,-0.089C0.656,-0.087 0.663,-0.084 0.668,-0.079C0.674,-0.074 0.676,-0.067 0.676,-0.058L0.676,-0L0.577,-0Z" style="fill:rgb(0,103,79);fill-rule:nonzero;"/>
                    </g>
                    <g transform="matrix(152.3594,0,0,152.3594,1483.934219,425.059)">
                        <path d="M0.265,0.008C0.238,0.008 0.211,0.006 0.185,0.003C0.16,0 0.136,-0.004 0.112,-0.01C0.089,-0.016 0.068,-0.023 0.047,-0.03L0.047,-0.129L0.111,-0.136C0.14,-0.122 0.167,-0.114 0.193,-0.109C0.218,-0.105 0.245,-0.103 0.272,-0.103C0.296,-0.103 0.317,-0.107 0.335,-0.115C0.352,-0.123 0.366,-0.135 0.375,-0.15C0.385,-0.166 0.39,-0.185 0.39,-0.206C0.39,-0.226 0.385,-0.242 0.375,-0.255C0.366,-0.267 0.353,-0.277 0.336,-0.285C0.32,-0.293 0.302,-0.3 0.283,-0.306C0.263,-0.311 0.244,-0.317 0.223,-0.324C0.194,-0.334 0.167,-0.346 0.142,-0.361C0.116,-0.376 0.096,-0.397 0.08,-0.422C0.065,-0.447 0.057,-0.48 0.057,-0.521C0.057,-0.561 0.067,-0.596 0.087,-0.628C0.107,-0.66 0.135,-0.685 0.17,-0.704C0.206,-0.722 0.248,-0.732 0.296,-0.732C0.33,-0.732 0.366,-0.727 0.403,-0.717C0.44,-0.707 0.472,-0.693 0.501,-0.675L0.501,-0.595L0.429,-0.596C0.408,-0.603 0.387,-0.61 0.365,-0.614C0.344,-0.619 0.321,-0.621 0.297,-0.621C0.262,-0.621 0.234,-0.613 0.215,-0.596C0.196,-0.58 0.186,-0.558 0.186,-0.532C0.186,-0.509 0.195,-0.49 0.211,-0.477C0.228,-0.464 0.249,-0.453 0.275,-0.445C0.301,-0.436 0.327,-0.427 0.353,-0.418C0.384,-0.408 0.412,-0.395 0.437,-0.38C0.462,-0.365 0.482,-0.345 0.497,-0.32C0.512,-0.296 0.519,-0.264 0.519,-0.225C0.519,-0.181 0.509,-0.141 0.488,-0.105C0.468,-0.07 0.439,-0.042 0.401,-0.022C0.363,-0.002 0.318,0.008 0.265,0.008ZM0.404,-0.618L0.501,-0.595L0.501,-0.507L0.449,-0.507C0.441,-0.507 0.434,-0.51 0.429,-0.515C0.424,-0.52 0.421,-0.527 0.419,-0.536L0.404,-0.618ZM0.144,-0.106L0.047,-0.129L0.047,-0.217L0.099,-0.217C0.107,-0.217 0.114,-0.215 0.119,-0.21C0.124,-0.205 0.128,-0.198 0.129,-0.188L0.144,-0.106Z" style="fill:rgb(0,103,79);fill-rule:nonzero;"/>
                    </g>
                    <g transform="matrix(152.3594,0,0,152.3594,1569.103123,425.059)">
                        <path d="M0.1,-0L0.1,-0.724L0.239,-0.724L0.239,-0.412L0.574,-0.412L0.574,-0.724L0.713,-0.724L0.713,-0L0.574,-0L0.574,-0.316L0.239,-0.316L0.239,-0L0.1,-0ZM0.026,-0L0.026,-0.058C0.026,-0.067 0.028,-0.074 0.033,-0.079C0.038,-0.084 0.046,-0.087 0.055,-0.089L0.112,-0.101L0.125,-0L0.026,-0ZM0.215,-0L0.228,-0.101L0.285,-0.089C0.294,-0.087 0.301,-0.084 0.307,-0.079C0.312,-0.074 0.314,-0.067 0.314,-0.058L0.314,-0L0.215,-0ZM0.125,-0.724L0.112,-0.623L0.055,-0.635C0.046,-0.637 0.038,-0.641 0.033,-0.645C0.028,-0.65 0.026,-0.657 0.026,-0.666L0.026,-0.724L0.125,-0.724ZM0.314,-0.724L0.314,-0.666C0.314,-0.657 0.312,-0.65 0.307,-0.645C0.301,-0.641 0.294,-0.637 0.285,-0.635L0.228,-0.623L0.215,-0.724L0.314,-0.724ZM0.499,-0L0.499,-0.058C0.499,-0.067 0.501,-0.074 0.507,-0.079C0.512,-0.084 0.519,-0.087 0.528,-0.089L0.585,-0.101L0.598,-0L0.499,-0ZM0.689,-0L0.702,-0.101L0.759,-0.089C0.768,-0.087 0.775,-0.084 0.78,-0.079C0.785,-0.074 0.788,-0.067 0.788,-0.058L0.788,-0L0.689,-0ZM0.598,-0.724L0.585,-0.623L0.528,-0.635C0.519,-0.637 0.512,-0.641 0.507,-0.645C0.501,-0.65 0.499,-0.657 0.499,-0.666L0.499,-0.724L0.598,-0.724ZM0.788,-0.724L0.788,-0.666C0.788,-0.657 0.785,-0.65 0.78,-0.645C0.775,-0.641 0.768,-0.637 0.759,-0.635L0.702,-0.623L0.689,-0.724L0.788,-0.724Z" style="fill:rgb(0,103,79);fill-rule:nonzero;"/>
                    </g>
                    <g transform="matrix(152.3594,0,0,152.3594,1692.666597,425.059)">
                        <path d="M0.1,-0L0.1,-0.724L0.239,-0.724L0.239,-0L0.1,-0ZM0.026,-0L0.026,-0.058C0.026,-0.067 0.028,-0.074 0.033,-0.079C0.038,-0.084 0.046,-0.087 0.055,-0.089L0.112,-0.101L0.125,-0L0.026,-0ZM0.215,-0L0.228,-0.101L0.285,-0.089C0.294,-0.087 0.301,-0.084 0.307,-0.079C0.312,-0.074 0.314,-0.067 0.314,-0.058L0.314,-0L0.215,-0ZM0.125,-0.724L0.112,-0.623L0.055,-0.635C0.046,-0.637 0.038,-0.641 0.033,-0.645C0.028,-0.65 0.026,-0.657 0.026,-0.666L0.026,-0.724L0.125,-0.724ZM0.314,-0.724L0.314,-0.666C0.314,-0.657 0.312,-0.65 0.307,-0.645C0.301,-0.641 0.294,-0.637 0.285,-0.635L0.228,-0.623L0.215,-0.724L0.314,-0.724Z" style="fill:rgb(0,103,79);fill-rule:nonzero;"/>
                    </g>
                    <g transform="matrix(152.3594,0,0,152.3594,1744.011715,425.059)">
                        <path d="M0.1,-0L0.1,-0.724L0.339,-0.724C0.397,-0.724 0.447,-0.715 0.489,-0.698C0.53,-0.68 0.563,-0.654 0.586,-0.62C0.609,-0.585 0.62,-0.543 0.62,-0.493C0.62,-0.441 0.609,-0.398 0.586,-0.362C0.562,-0.327 0.53,-0.3 0.487,-0.282C0.445,-0.263 0.395,-0.254 0.339,-0.254L0.239,-0.254L0.239,-0L0.1,-0ZM0.239,-0.36L0.339,-0.36C0.37,-0.36 0.397,-0.365 0.418,-0.376C0.44,-0.386 0.456,-0.402 0.466,-0.421C0.477,-0.441 0.482,-0.465 0.482,-0.493C0.482,-0.532 0.47,-0.563 0.446,-0.585C0.422,-0.607 0.386,-0.618 0.339,-0.618L0.239,-0.618L0.239,-0.36ZM0.026,-0L0.026,-0.058C0.026,-0.067 0.028,-0.074 0.033,-0.079C0.038,-0.084 0.046,-0.087 0.055,-0.089L0.112,-0.101L0.125,-0L0.026,-0ZM0.125,-0.724L0.112,-0.623L0.055,-0.635C0.046,-0.637 0.038,-0.641 0.033,-0.645C0.028,-0.65 0.026,-0.657 0.026,-0.666L0.026,-0.724L0.125,-0.724ZM0.215,-0L0.227,-0.101L0.285,-0.089C0.294,-0.087 0.301,-0.084 0.306,-0.079C0.311,-0.074 0.314,-0.067 0.314,-0.058L0.314,-0L0.215,-0Z" style="fill:rgb(0,103,79);fill-rule:nonzero;"/>
                    </g>
                    <g transform="matrix(152.3594,0,0,152.3594,1841.826449,425.059)">
                    </g>
                </g>
            </g>
        </g>
    </g>
</svg>
