<?xml version="1.0" encoding="UTF-8" standalone="no"?>
<!DOCTYPE svg PUBLIC "-//W3C//DTD SVG 1.1//EN" "http://www.w3.org/Graphics/SVG/1.1/DTD/svg11.dtd">
<svg width="100%" height="100%" viewBox="0 0 4167 4168" version="1.1" xmlns="http://www.w3.org/2000/svg" xmlns:xlink="http://www.w3.org/1999/xlink" xml:space="preserve" xmlns:serif="http://www.serif.com/" style="fill-rule:evenodd;clip-rule:evenodd;stroke-linecap:round;stroke-linejoin:round;stroke-miterlimit:1.5;">
    <g transform="matrix(1,0,0,1,-11684,-5209)">
        <g id="FIN" transform="matrix(4.166667,0,0,4.166667,11684.152495,5209.339182)">
            <rect x="0" y="0" width="1000" height="1000" style="fill:none;"/>
            <g id="Layer-4" serif:id="Layer 4">
            </g>
            <g id="BADGE">
                <g transform="matrix(0,-1,-1,0,499.9998,32.5525)">
                    <path d="M-467.447,-467.447C-725.611,-467.447 -934.894,-258.164 -934.894,-0C-934.894,258.163 -725.611,467.447 -467.447,467.447C-209.283,467.447 -0,258.163 -0,-0C-0,-258.164 -209.283,-467.447 -467.447,-467.447" style="fill:rgb(246,247,248);fill-rule:nonzero;"/>
                </g>
                <g transform="matrix(0.24,0,0,0.24,0,0)">
                    <circle cx="2086.332" cy="2083.343" r="975.079" style="fill:none;stroke:black;stroke-width:2.08px;"/>
                </g>
                <g transform="matrix(1,0,0,1,227.1475,342.0523)">
                    <path d="M0,315.895L0,0.001L273.572,-157.946L547.144,0.001L547.144,315.895L273.572,473.841L0,315.895Z" style="fill:rgb(246,247,248);fill-rule:nonzero;"/>
                </g>
                <g transform="matrix(1,0,0,1,774.2939,657.9443)">
                    <path d="M0,-315.894L0,0L-273.572,157.947L-320.015,131.13L-274.291,-157.53L-547.144,-262.267L-547.144,-315.894L-273.572,-473.841L0,-315.894Z" style="fill:rgb(255,108,47);fill-rule:nonzero;"/>
                </g>
                <g transform="matrix(-1,-0,0,-1,227.1499,342.0503)">
                    <path d="M0,-315.894L0,0L-273.572,157.947L-320.015,131.13L-274.291,-157.53L-547.144,-262.267L-547.144,-315.894L-273.572,-473.841L0,-315.894Z" style="fill:rgb(255,108,47);fill-rule:nonzero;"/>
                </g>
                <g transform="matrix(1,0,0,1,500.7192,787.6598)">
                    <path d="M0,-575.32L249.121,-431.49L249.121,-143.83L0,0L-249.121,-143.83L-249.121,-431.49L0,-575.32Z" style="fill:rgb(246,247,248);fill-rule:nonzero;"/>
                </g>
                <g transform="matrix(1,0,0,1,266.7007,364.8883)">
                    <path d="M0,270.223L0,0.001L234.019,-135.11L468.038,0.001L468.038,270.223L234.019,405.333L0,270.223Z" style="fill:rgb(255,108,47);fill-rule:nonzero;"/>
                </g>
            </g>
            <g id="ICON">
                <g transform="matrix(0.266221,0.260162,-0.263049,0.269175,-1272.239561,-5050.966744)">
                    <path d="M13853.156,7125.591C14044.367,7125.591 14199.606,7185.08 14199.606,7258.354C14199.606,7331.629 14044.367,7391.118 13853.156,7391.118C13661.945,7391.118 13506.706,7331.629 13506.706,7258.354C13506.706,7185.08 13661.945,7125.591 13853.156,7125.591ZM13853.156,7165.603C13719.572,7165.603 13611.118,7207.163 13611.118,7258.354C13611.118,7309.545 13719.572,7351.106 13853.156,7351.106C13986.74,7351.106 14095.193,7309.545 14095.193,7258.354C14095.193,7207.163 13986.74,7165.603 13853.156,7165.603Z" style="fill:rgb(246,247,248);"/>
                </g>
                <g transform="matrix(0.144893,0.141595,-0.143166,0.146501,-461.610295,-2518.029128)">
                    <ellipse cx="13853.156" cy="7258.354" rx="346.45" ry="132.764" style="fill:rgb(246,247,248);"/>
                </g>
                <g transform="matrix(0.266221,0.260162,-0.263049,0.269175,-1271.981892,-5051.224413)">
                    <path d="M13530.946,7427C13517.08,7414.004 13508.438,7399.981 13506.023,7385.314L13505.792,7383.776C13505.483,7381.479 13505.327,7379.166 13505.327,7376.84C13505.327,7374.538 13505.48,7372.25 13505.782,7369.977L13505.726,7290.65C13506.167,7307.936 13515.282,7324.436 13531.479,7339.547L13530.946,7427ZM13560.732,7361.003C13571.297,7367.28 13583.205,7373.195 13596.3,7378.689L13595.766,7466.253C13582.667,7460.749 13570.759,7454.822 13560.199,7448.531L13560.732,7361.003ZM13625.617,7389.63C13637.05,7393.423 13649.134,7396.936 13661.797,7400.14L13661.263,7487.719C13648.599,7484.515 13636.514,7481.001 13625.084,7477.206L13625.617,7389.63ZM13691.14,7406.797C13739.46,7416.566 13794.485,7422.099 13852.795,7422.099C14034.5,7422.099 14183.722,7368.377 14198.109,7300.155L14198.162,7374.246C14198.205,7375.109 14198.227,7375.973 14198.227,7376.84C14198.227,7377.681 14198.206,7378.521 14198.165,7379.359L14197.608,7384.831C14186.81,7454.391 14035.986,7509.603 13851.777,7509.603C13793.604,7509.603 13738.762,7504.097 13690.607,7494.372L13691.14,7406.797ZM13505.726,7290.65C13505.715,7290.211 13505.709,7289.772 13505.709,7289.333C13505.709,7288.917 13505.714,7288.502 13505.724,7288.087L13505.726,7290.65Z" style="fill:rgb(246,247,248);"/>
                </g>
                <g transform="matrix(-0.166492,0.162703,0.159453,0.163166,1692.051025,-3012.979756)">
                    <path d="M13968.546,7133.145C13932.445,7128.253 13893.605,7125.591 13853.156,7125.591C13661.945,7125.591 13506.706,7185.08 13506.706,7258.354C13506.706,7331.629 13661.945,7391.118 13853.156,7391.118C13882.422,7391.118 13910.846,7389.724 13937.999,7387.101C13940.642,7295.299 13951.497,7208.988 13968.546,7133.145ZM13937.378,7426.383C13910.307,7429.072 13881.975,7430.501 13852.806,7430.501C13662.742,7430.501 13507.591,7369.857 13505.737,7294.884L13505.794,7376.727C13505.491,7379.072 13505.338,7381.432 13505.338,7383.807C13505.338,7386.207 13505.494,7388.593 13505.804,7390.963L13506.034,7392.55C13517.454,7464.08 13668.005,7520.78 13851.788,7520.78C13882.226,7520.78 13911.752,7519.224 13939.886,7516.304C13938.152,7487.081 13937.294,7457.043 13937.378,7426.383ZM13505.737,7294.884L13505.735,7292.24C13505.725,7292.668 13505.72,7293.097 13505.72,7293.525C13505.72,7293.979 13505.726,7294.432 13505.737,7294.884Z" style="fill:rgb(246,247,248);"/>
                </g>
                <g transform="matrix(0.24,0,0,0.24,-2782.437987,-1252.682906)">
                    <path d="M14260.266,7297.004C14262.778,7297.845 14264.471,7300.197 14264.471,7302.845C14264.471,7305.494 14262.778,7307.846 14260.266,7308.687C14224.041,7320.481 14195.394,7349.129 14183.599,7385.354C14182.759,7387.866 14180.406,7389.559 14177.758,7389.559C14175.109,7389.559 14172.757,7387.866 14171.916,7385.354C14160.122,7349.129 14131.474,7320.481 14095.249,7308.687C14092.737,7307.846 14091.044,7305.494 14091.044,7302.845C14091.044,7300.197 14092.737,7297.845 14095.249,7297.004C14131.474,7285.21 14160.122,7256.562 14171.916,7220.337C14172.757,7217.825 14175.109,7216.132 14177.758,7216.132C14180.406,7216.132 14182.759,7217.825 14183.599,7220.337C14195.394,7256.562 14224.041,7285.21 14260.266,7297.004Z" style="fill:rgb(246,247,248);"/>
                </g>
                <g transform="matrix(0.24,0,0,0.24,-2931.322242,-1369.324711)">
                    <path d="M14260.266,7297.004C14262.778,7297.845 14264.471,7300.197 14264.471,7302.845C14264.471,7305.494 14262.778,7307.846 14260.266,7308.687C14224.041,7320.481 14195.394,7349.129 14183.599,7385.354C14182.759,7387.866 14180.406,7389.559 14177.758,7389.559C14175.109,7389.559 14172.757,7387.866 14171.916,7385.354C14160.122,7349.129 14131.474,7320.481 14095.249,7308.687C14092.737,7307.846 14091.044,7305.494 14091.044,7302.845C14091.044,7300.197 14092.737,7297.845 14095.249,7297.004C14131.474,7285.21 14160.122,7256.562 14171.916,7220.337C14172.757,7217.825 14175.109,7216.132 14177.758,7216.132C14180.406,7216.132 14182.759,7217.825 14183.599,7220.337C14195.394,7256.562 14224.041,7285.21 14260.266,7297.004Z" style="fill:rgb(246,247,248);"/>
                </g>
                <g transform="matrix(0.24,0,0,0.24,-3009.083445,-1169.231857)">
                    <path d="M14260.266,7297.004C14262.778,7297.845 14264.471,7300.197 14264.471,7302.845C14264.471,7305.494 14262.778,7307.846 14260.266,7308.687C14224.041,7320.481 14195.394,7349.129 14183.599,7385.354C14182.759,7387.866 14180.406,7389.559 14177.758,7389.559C14175.109,7389.559 14172.757,7387.866 14171.916,7385.354C14160.122,7349.129 14131.474,7320.481 14095.249,7308.687C14092.737,7307.846 14091.044,7305.494 14091.044,7302.845C14091.044,7300.197 14092.737,7297.845 14095.249,7297.004C14131.474,7285.21 14160.122,7256.562 14171.916,7220.337C14172.757,7217.825 14175.109,7216.132 14177.758,7216.132C14180.406,7216.132 14182.759,7217.825 14183.599,7220.337C14195.394,7256.562 14224.041,7285.21 14260.266,7297.004Z" style="fill:rgb(246,247,248);"/>
                </g>
            </g>
        </g>
    </g>
</svg>
