<?xml version="1.0" encoding="UTF-8" standalone="no"?>
<!DOCTYPE svg PUBLIC "-//W3C//DTD SVG 1.1//EN" "http://www.w3.org/Graphics/SVG/1.1/DTD/svg11.dtd">
<svg width="100%" height="100%" viewBox="0 0 4167 4168" version="1.1" xmlns="http://www.w3.org/2000/svg" xmlns:xlink="http://www.w3.org/1999/xlink" xml:space="preserve" xmlns:serif="http://www.serif.com/" style="fill-rule:evenodd;clip-rule:evenodd;stroke-linecap:round;stroke-linejoin:round;stroke-miterlimit:1.5;">
    <g transform="matrix(1,0,0,1,-5999,-10303)">
        <g id="ACAD" transform="matrix(4.166667,0,0,4.166667,5999.022748,10303.42661)">
            <rect x="0" y="0" width="1000" height="1000" style="fill:none;"/>
            <g id="Layer-4" serif:id="Layer 4">
            </g>
            <g id="BADGE">
                <g transform="matrix(0,-1,-1,0,499.9998,32.5525)">
                    <path d="M-467.447,-467.447C-725.611,-467.447 -934.894,-258.164 -934.894,-0C-934.894,258.163 -725.611,467.447 -467.447,467.447C-209.283,467.447 -0,258.163 -0,-0C-0,-258.164 -209.283,-467.447 -467.447,-467.447" style="fill:rgb(246,247,248);fill-rule:nonzero;"/>
                </g>
                <g transform="matrix(0.24,0,0,0.24,0,0)">
                    <circle cx="2086.332" cy="2083.343" r="975.079" style="fill:none;stroke:black;stroke-width:2.08px;"/>
                </g>
                <g transform="matrix(1,0,0,1,227.1475,342.0523)">
                    <path d="M0,315.895L0,0.001L273.572,-157.946L547.144,0.001L547.144,315.895L273.572,473.841L0,315.895Z" style="fill:rgb(246,247,248);fill-rule:nonzero;"/>
                </g>
                <g transform="matrix(1,0,0,1,774.2939,657.9443)">
                    <path d="M0,-315.894L0,0L-273.572,157.947L-320.015,131.13L-274.291,-157.53L-547.144,-262.267L-547.144,-315.894L-273.572,-473.841L0,-315.894Z" style="fill:rgb(15,76,130);fill-rule:nonzero;"/>
                </g>
                <g transform="matrix(-1,-0,0,-1,227.1499,342.0503)">
                    <path d="M0,-315.894L0,0L-273.572,157.947L-320.015,131.13L-274.291,-157.53L-547.144,-262.267L-547.144,-315.894L-273.572,-473.841L0,-315.894Z" style="fill:rgb(15,76,130);fill-rule:nonzero;"/>
                </g>
                <g transform="matrix(1,0,0,1,500.7192,787.6598)">
                    <path d="M0,-575.32L249.121,-431.49L249.121,-143.83L0,0L-249.121,-143.83L-249.121,-431.49L0,-575.32Z" style="fill:rgb(246,247,248);fill-rule:nonzero;"/>
                </g>
                <g transform="matrix(1,0,0,1,266.7007,364.8883)">
                    <path d="M0,270.223L0,0.001L234.019,-135.11L468.038,0.001L468.038,270.223L234.019,405.333L0,270.223Z" style="fill:rgb(15,76,130);fill-rule:nonzero;"/>
                </g>
            </g>
            <g id="ICON">
                <g transform="matrix(0.24,0,0,0.24,-1439.76546,-2472.822386)">
                    <path d="M7597.653,11888.838C7597.653,11884.372 7600.036,11880.245 7603.903,11878.013C7607.771,11875.78 7612.536,11875.78 7616.403,11878.013C7694.377,11923.032 7991.105,12094.353 8037.971,12121.412C8041.838,12123.645 8044.221,12127.771 8044.221,12132.237C8044.221,12204.616 8044.221,12799.409 8044.221,12913.418C8044.221,12917.609 8042.12,12921.52 8038.628,12923.836C8035.135,12926.152 8030.714,12926.563 8026.854,12924.931C7951.777,12893.197 7656.593,12768.425 7605.254,12746.725C7600.627,12744.769 7597.62,12740.234 7597.62,12735.211C7597.624,12654.899 7597.648,12015.23 7597.653,11888.838Z" style="fill:rgb(246,247,248);"/>
                </g>
                <g transform="matrix(-0.24,0,0,0.24,2441.334355,-2472.828997)">
                    <path d="M7597.653,11888.838C7597.653,11884.372 7600.036,11880.245 7603.903,11878.013C7607.771,11875.78 7612.536,11875.78 7616.403,11878.013C7694.377,11923.032 7991.105,12094.353 8037.971,12121.412C8041.838,12123.645 8044.221,12127.771 8044.221,12132.237C8044.221,12204.616 8044.221,12799.409 8044.221,12913.418C8044.221,12917.609 8042.12,12921.52 8038.628,12923.836C8035.135,12926.152 8030.714,12926.563 8026.854,12924.931C7951.777,12893.197 7656.593,12768.425 7605.254,12746.725C7600.627,12744.769 7597.62,12740.234 7597.62,12735.211C7597.624,12654.899 7597.648,12015.23 7597.653,11888.838Z" style="fill:rgb(246,247,248);"/>
                </g>
                <g transform="matrix(0.24,0,0,0.24,-1439.76546,-2472.822386)">
                    <path d="M7395.884,11988.693C7395.884,11988.693 7520.167,12060.337 7549.733,12077.38C7553.604,12079.612 7555.989,12083.74 7555.99,12088.208C7555.996,12155.737 7556.047,12675.72 7556.054,12748.981C7556.055,12754.145 7559.23,12758.777 7564.046,12760.639C7596.098,12773.031 7718.76,12820.455 7825.768,12861.827C7831.904,12864.199 7835.151,12870.922 7833.195,12877.203C7831.238,12883.484 7824.748,12887.174 7818.35,12885.643C7640.541,12843.082 7395.867,12784.518 7395.867,12784.518" style="fill:rgb(246,247,248);"/>
                </g>
                <g transform="matrix(-0.24,0,0,0.24,2441.381446,-2472.822386)">
                    <path d="M7395.884,11988.693C7395.884,11988.693 7520.167,12060.337 7549.733,12077.38C7553.604,12079.612 7555.989,12083.74 7555.99,12088.208C7555.996,12155.737 7556.047,12675.72 7556.054,12748.981C7556.055,12754.145 7559.23,12758.777 7564.046,12760.639C7596.098,12773.031 7718.76,12820.455 7825.768,12861.827C7831.904,12864.199 7835.151,12870.922 7833.195,12877.203C7831.238,12883.484 7824.748,12887.174 7818.35,12885.643C7640.541,12843.082 7395.867,12784.518 7395.867,12784.518" style="fill:rgb(246,247,248);"/>
                </g>
            </g>
        </g>
    </g>
</svg>
