<?xml version="1.0" encoding="UTF-8" standalone="no"?>
<!DOCTYPE svg PUBLIC "-//W3C//DTD SVG 1.1//EN" "http://www.w3.org/Graphics/SVG/1.1/DTD/svg11.dtd">
<svg width="100%" height="100%" viewBox="0 0 3318 2451" version="1.1" xmlns="http://www.w3.org/2000/svg" xmlns:xlink="http://www.w3.org/1999/xlink" xml:space="preserve" xmlns:serif="http://www.serif.com/" style="fill-rule:evenodd;clip-rule:evenodd;stroke-linejoin:round;stroke-miterlimit:2;">
    <g transform="matrix(1,0,0,1,-10423,-10543)">
        <g transform="matrix(5.142636,0,0,5.142636,9339.162088,50.9054)">
            <g id="AcademicAffairs_RecolorVertical" transform="matrix(0.81022,0,0,0.81022,616.239546,799.819073)">
                <g id="LOGO">
                    <g transform="matrix(0,-1,-1,0,-100.971287,1531.143381)">
                        <path d="M-233.592,-233.591C-362.601,-233.591 -467.184,-129.009 -467.184,0C-467.184,129.01 -362.601,233.592 -233.592,233.592C-104.582,233.592 0.001,129.01 0.001,0C0.001,-129.009 -104.582,-233.591 -233.592,-233.591" style="fill:rgb(246,247,248);fill-rule:nonzero;"/>
                    </g>
                    <g transform="matrix(1,0,0,1,-237.321287,1685.806081)">
                        <path d="M0,157.858L0,-0L136.709,-78.929L273.417,-0L273.417,157.858L136.709,236.787L0,157.858Z" style="fill:rgb(246,247,248);fill-rule:nonzero;"/>
                    </g>
                    <g transform="matrix(1,0,0,1,36.098213,1843.662781)">
                        <path d="M0,-157.858L0,-0.001L-136.709,78.929L-159.917,65.528L-137.068,-78.72L-273.418,-131.059L-273.418,-157.858L-136.709,-236.787L0,-157.858Z" style="fill:rgb(83,29,125);fill-rule:nonzero;"/>
                    </g>
                    <g transform="matrix(1,0,0,1,-100.612287,1908.483381)">
                        <path d="M0,-287.497L124.49,-215.623L124.49,-71.874L0,0L-124.49,-71.874L-124.49,-215.623L0,-287.497Z" style="fill:rgb(246,247,248);fill-rule:nonzero;"/>
                    </g>
                    <g transform="matrix(-0.809027,0.587771,0.587771,0.809027,-198.519241,1884.36313)">
                        <path d="M-149.112,-39.278L0.14,-39.278L7.468,-55.734L-3.12,-70.309L-149.112,-39.278Z" style="fill:rgb(83,29,125);fill-rule:nonzero;"/>
                    </g>
                    <g transform="matrix(1,0,0,1,-100.970187,1764.945481)">
                        <path d="M0,-0.003L-136.35,14.328L-136.35,-14.331L0,-0.003Z" style="fill:rgb(83,29,125);fill-rule:nonzero;"/>
                    </g>
                    <g transform="matrix(1,0,0,1,36.096213,1654.682981)">
                        <path d="M0,62.53C-17.239,62.53 -31.265,48.505 -31.265,31.265C-31.265,14.025 -17.239,0 0,0C17.24,0 31.266,14.025 31.266,31.265C31.266,48.505 17.24,62.53 0,62.53" style="fill:rgb(246,247,248);fill-rule:nonzero;"/>
                    </g>
                    <g transform="matrix(1,0,0,1,-100.970187,1872.225481)">
                        <path d="M0,-107.283L-86.878,0L-113.504,-15.374L0,-107.283Z" style="fill:rgb(83,29,125);fill-rule:nonzero;"/>
                    </g>
                    <g transform="matrix(1,0,0,1,-217.555587,1697.217981)">
                        <path d="M0,135.034L0,0L116.943,-67.518L233.887,0L233.887,135.034L116.943,202.552L0,135.034Z" style="fill:rgb(83,29,125);fill-rule:nonzero;"/>
                    </g>
                    <g transform="matrix(1,0,0,1,-100.970187,1890.186481)">
                        <path d="M0,-125.244L-55.764,0L-80.586,-14.328L0,-125.244Z" style="fill:rgb(83,29,125);fill-rule:nonzero;"/>
                    </g>
                    <g transform="matrix(1,0,0,1,-237.319787,1764.942681)">
                        <path d="M0,-21.595L136.35,0L0,-14.328L0,-21.595Z" style="fill:rgb(246,247,248);fill-rule:nonzero;"/>
                    </g>
                    <g transform="matrix(1,0,0,1,-237.319787,1772.209481)">
                        <path d="M0,7.064L136.35,-7.267L0,14.331L0,7.064Z" style="fill:rgb(246,247,248);fill-rule:nonzero;"/>
                    </g>
                    <g transform="matrix(1,0,0,1,-237.319787,1773.308281)">
                        <path d="M0,43.973L136.35,-8.366L0,52.339L0,43.973Z" style="fill:rgb(246,247,248);fill-rule:nonzero;"/>
                    </g>
                    <g transform="matrix(1,0,0,1,-221.719187,1769.125981)">
                        <path d="M0,83.542L120.749,-4.184L7.245,87.726L0,83.542Z" style="fill:rgb(246,247,248);fill-rule:nonzero;"/>
                    </g>
                    <g transform="matrix(1,0,0,1,-187.848587,1768.575681)">
                        <path d="M0,103.65L86.878,-3.633L6.292,107.283L0,103.65Z" style="fill:rgb(246,247,248);fill-rule:nonzero;"/>
                    </g>
                    <g transform="matrix(1,0,0,1,-156.733887,1768.576581)">
                        <path d="M0,121.61L55.764,-3.634L6.289,125.244L0,121.61Z" style="fill:rgb(246,247,248);fill-rule:nonzero;"/>
                    </g>
                    <g transform="matrix(-0.865276,-0.501295,-0.501295,0.865276,-130.44354,1853.841759)">
                        <path d="M23.401,-84.15L204.724,-84.15L-67.47,-241.844L-67.858,72.548L23.401,-84.15Z" style="fill:rgb(246,247,248);fill-rule:nonzero;"/>
                    </g>
                    <g transform="matrix(1,0,0,1,-100.970187,1817.281481)">
                        <path d="M0,-52.339L-136.35,0L-136.35,-30.741L0,-52.339Z" style="fill:rgb(83,29,125);fill-rule:nonzero;"/>
                    </g>
                    <g transform="matrix(1,0,0,1,-100.970187,1712.603481)">
                        <path d="M0,52.339L-136.35,30.744L-136.35,0L0,52.339Z" style="fill:rgb(83,29,125);fill-rule:nonzero;"/>
                    </g>
                    <g transform="matrix(1,0,0,1,-237.319787,1739.484581)">
                        <path d="M0,-26.881L13.727,-36.872L96.057,9.991L0,-26.881Z" style="fill:rgb(83,29,125);fill-rule:nonzero;"/>
                    </g>
                    <g transform="matrix(1,0,0,1,-100.970187,1909.190481)">
                        <path d="M0,-144.248L-22.849,0L-49.475,-15.37L0,-144.248Z" style="fill:rgb(83,29,125);fill-rule:nonzero;"/>
                    </g>
                    <g transform="matrix(1,0,0,1,-237.321287,1654.682981)">
                        <path d="M0,62.53C-17.24,62.53 -31.265,48.505 -31.265,31.265C-31.265,14.025 -17.24,0 0,0C17.24,0 31.266,14.025 31.266,31.265C31.266,48.505 17.24,62.53 0,62.53" style="fill:rgb(246,247,248);fill-rule:nonzero;"/>
                    </g>
                    <g transform="matrix(1,0,0,1,-123.819287,1807.561481)">
                        <path d="M0,101.629L15.314,86.259L16.098,0L0,101.629Z" style="fill:rgb(83,29,125);fill-rule:nonzero;"/>
                    </g>
                    <g transform="matrix(1,0,0,1,-100.612287,1891.327481)">
                        <path d="M0,62.531C-17.24,62.531 -31.265,48.505 -31.265,31.265C-31.265,14.026 -17.24,0 0,0C17.24,0 31.265,14.026 31.265,31.265C31.265,48.505 17.24,62.531 0,62.531" style="fill:rgb(246,247,248);fill-rule:nonzero;"/>
                    </g>
                    <g transform="matrix(1,0,0,1,-100.971587,1721.794881)">
                        <path d="M0,86.295C-23.792,86.295 -43.147,66.939 -43.147,43.148C-43.147,19.356 -23.792,0 0,0C23.792,0 43.147,19.356 43.147,43.148C43.147,66.939 23.792,86.295 0,86.295" style="fill:rgb(246,247,248);fill-rule:nonzero;"/>
                    </g>
                    <g transform="matrix(1,0,0,1,-237.321287,1922.593281)">
                        <path d="M0,-236.645L273.417,-236.645L136.709,0L136.35,-157.651L0,-236.645Z" style="fill:rgb(83,29,125);fill-rule:nonzero;"/>
                    </g>
                    <g transform="matrix(-0.865275,-0.501297,-0.501297,0.865275,-103.135831,1813.610559)">
                        <path d="M15.501,-55.415L134.64,-55.415L-44.285,-159.075L-44.541,47.681L15.501,-55.415Z" style="fill:rgb(246,247,248);fill-rule:nonzero;"/>
                    </g>
                    <g transform="matrix(0,-1,-1,0,-100.972087,1729.004981)">
                        <path d="M-35.937,-35.937C-55.785,-35.937 -71.875,-19.847 -71.875,-0C-71.875,19.848 -55.785,35.937 -35.937,35.937C-16.089,35.937 0.001,19.848 0.001,-0C0.001,-19.847 -16.089,-35.937 -35.937,-35.937" style="fill:rgb(83,29,125);fill-rule:nonzero;"/>
                    </g>
                    <g transform="matrix(1,0,0,1,-100.971587,1741.223181)">
                        <path d="M0,47.438C-13.079,47.438 -23.719,36.797 -23.719,23.719C-23.719,10.641 -13.079,0 0,0C13.079,0 23.718,10.641 23.718,23.719C23.718,36.797 13.079,47.438 0,47.438" style="fill:rgb(246,247,248);fill-rule:nonzero;"/>
                    </g>
                    <g transform="matrix(1,0,0,1,-237.320787,1662.229081)">
                        <path d="M0,47.438C-13.079,47.438 -23.719,36.797 -23.719,23.719C-23.719,10.64 -13.079,0 0,0C13.078,0 23.718,10.64 23.718,23.719C23.718,36.797 13.078,47.438 0,47.438" style="fill:rgb(83,29,125);fill-rule:nonzero;"/>
                    </g>
                    <g transform="matrix(1,0,0,1,-237.321287,1674.448281)">
                        <path d="M0,23C-6.341,23 -11.5,17.841 -11.5,11.5C-11.5,5.159 -6.341,0 0,0C6.341,0 11.5,5.159 11.5,11.5C11.5,17.841 6.341,23 0,23" style="fill:rgb(246,247,248);fill-rule:nonzero;"/>
                    </g>
                    <g transform="matrix(1,0,0,1,36.096213,1662.229081)">
                        <path d="M0,47.438C-13.078,47.438 -23.718,36.797 -23.718,23.719C-23.718,10.64 -13.078,0 0,0C13.079,0 23.719,10.64 23.719,23.719C23.719,36.797 13.079,47.438 0,47.438" style="fill:rgb(83,29,125);fill-rule:nonzero;"/>
                    </g>
                    <g transform="matrix(1,0,0,1,35.850113,1674.448281)">
                        <path d="M0,23C-6.341,23 -11.5,17.841 -11.5,11.5C-11.5,5.159 -6.341,0 0,0C6.341,0 11.5,5.159 11.5,11.5C11.5,17.841 6.341,23 0,23" style="fill:rgb(246,247,248);fill-rule:nonzero;"/>
                    </g>
                    <g transform="matrix(1,0,0,1,-100.612287,1898.873581)">
                        <path d="M0,47.438C-13.079,47.438 -23.719,36.797 -23.719,23.719C-23.719,10.641 -13.079,0 0,0C13.079,0 23.718,10.641 23.718,23.719C23.718,36.797 13.079,47.438 0,47.438" style="fill:rgb(83,29,125);fill-rule:nonzero;"/>
                    </g>
                    <g transform="matrix(1,0,0,1,-100.612287,1911.092781)">
                        <path d="M0,23C-6.341,23 -11.5,17.841 -11.5,11.5C-11.5,5.159 -6.341,0 0,0C6.341,0 11.5,5.159 11.5,11.5C11.5,17.841 6.341,23 0,23" style="fill:rgb(246,247,248);fill-rule:nonzero;"/>
                    </g>
                </g>
                <g id="LOGOTYPE" transform="matrix(1.132491,0,0,1.132491,-647.435844,-533.421489)">
                    <g transform="matrix(71.9379,0,0,71.9379,127.989515,2341.5395)">
                        <path d="M0.1,-0L0.1,-0.724L0.558,-0.724L0.558,-0.616L0.239,-0.616L0.239,-0.416L0.481,-0.416L0.481,-0.312L0.239,-0.312L0.239,-0.108L0.558,-0.108L0.558,-0L0.1,-0ZM0.46,-0.085L0.475,-0.167C0.478,-0.177 0.481,-0.184 0.486,-0.189C0.491,-0.194 0.497,-0.196 0.506,-0.196L0.558,-0.196L0.558,-0.108L0.46,-0.085ZM0.46,-0.639L0.558,-0.616L0.558,-0.528L0.506,-0.528C0.497,-0.528 0.491,-0.53 0.486,-0.535C0.481,-0.54 0.478,-0.547 0.475,-0.557L0.46,-0.639ZM0.125,-0.724L0.113,-0.623L0.055,-0.635C0.046,-0.637 0.039,-0.641 0.034,-0.645C0.029,-0.65 0.026,-0.657 0.026,-0.666L0.026,-0.724L0.125,-0.724ZM0.026,-0L0.026,-0.058C0.026,-0.067 0.028,-0.074 0.033,-0.079C0.038,-0.084 0.046,-0.087 0.055,-0.089L0.112,-0.101L0.125,-0L0.026,-0Z" style="fill:rgb(83,29,125);fill-rule:nonzero;"/>
                    </g>
                    <g transform="matrix(71.9379,0,0,71.9379,170.64869,2341.5395)">
                        <path d="M0.024,-0L0.264,-0.372L0.033,-0.724L0.171,-0.724C0.18,-0.724 0.187,-0.722 0.191,-0.72C0.196,-0.717 0.199,-0.713 0.203,-0.707L0.366,-0.444C0.368,-0.448 0.37,-0.452 0.372,-0.456C0.374,-0.46 0.376,-0.464 0.378,-0.468L0.526,-0.705C0.53,-0.711 0.534,-0.716 0.539,-0.719C0.544,-0.722 0.549,-0.724 0.555,-0.724L0.687,-0.724L0.455,-0.378L0.694,-0L0.556,-0C0.547,-0 0.539,-0.002 0.534,-0.007C0.528,-0.012 0.524,-0.018 0.52,-0.024L0.354,-0.298C0.353,-0.295 0.351,-0.291 0.35,-0.288C0.348,-0.285 0.346,-0.281 0.345,-0.279L0.187,-0.024C0.184,-0.018 0.179,-0.012 0.174,-0.007C0.168,-0.002 0.161,-0 0.152,-0L0.024,-0ZM0.134,-0L0.134,-0.062L0.213,-0.062L0.213,-0L0.134,-0ZM0.5,-0L0.5,-0.062L0.579,-0.062L0.579,-0L0.5,-0ZM0.152,-0.691L0.152,-0.724L0.227,-0.724L0.227,-0.691L0.152,-0.691ZM0.502,-0.677L0.502,-0.724L0.577,-0.724L0.577,-0.677L0.502,-0.677ZM0.119,-0.724L0.106,-0.623L0.049,-0.635C0.04,-0.637 0.033,-0.641 0.028,-0.645C0.023,-0.65 0.02,-0.657 0.02,-0.666L0.02,-0.724L0.119,-0.724ZM0.302,-0.724L0.302,-0.666C0.302,-0.657 0.299,-0.65 0.294,-0.645C0.289,-0.641 0.282,-0.637 0.273,-0.635L0.215,-0.623L0.202,-0.724L0.302,-0.724ZM0.52,-0.724L0.508,-0.623L0.45,-0.635C0.441,-0.637 0.434,-0.641 0.429,-0.645C0.424,-0.65 0.421,-0.657 0.421,-0.666L0.421,-0.724L0.52,-0.724ZM0.703,-0.724L0.703,-0.666C0.703,-0.657 0.7,-0.65 0.695,-0.645C0.69,-0.641 0.683,-0.637 0.674,-0.635L0.616,-0.623L0.604,-0.724L0.703,-0.724ZM0.01,-0L0.01,-0.058C0.01,-0.067 0.013,-0.074 0.018,-0.079C0.023,-0.084 0.03,-0.087 0.039,-0.089L0.097,-0.101L0.109,-0L0.01,-0ZM0.193,-0L0.205,-0.101L0.263,-0.089C0.272,-0.087 0.279,-0.084 0.284,-0.079C0.289,-0.074 0.292,-0.067 0.292,-0.058L0.292,-0L0.193,-0ZM0.608,-0L0.621,-0.101L0.678,-0.089C0.687,-0.087 0.694,-0.084 0.699,-0.079C0.704,-0.074 0.707,-0.067 0.707,-0.058L0.707,-0L0.608,-0ZM0.425,-0L0.425,-0.058C0.425,-0.067 0.428,-0.074 0.433,-0.079C0.438,-0.084 0.445,-0.087 0.454,-0.089L0.512,-0.101L0.525,-0L0.425,-0Z" style="fill:rgb(83,29,125);fill-rule:nonzero;"/>
                    </g>
                    <g transform="matrix(71.9379,0,0,71.9379,222.01235,2341.5395)">
                        <path d="M0.232,-0L0.232,-0.612L0.015,-0.612L0.015,-0.724L0.586,-0.724L0.586,-0.612L0.37,-0.612L0.37,-0L0.232,-0ZM0.157,-0L0.157,-0.058C0.157,-0.067 0.16,-0.074 0.165,-0.079C0.17,-0.084 0.177,-0.087 0.186,-0.089L0.244,-0.101L0.256,-0L0.157,-0ZM0.346,-0L0.358,-0.101L0.416,-0.089C0.425,-0.087 0.432,-0.084 0.437,-0.079C0.442,-0.074 0.445,-0.067 0.445,-0.058L0.445,-0L0.346,-0ZM0.489,-0.636L0.586,-0.612L0.586,-0.524L0.535,-0.524C0.526,-0.524 0.519,-0.527 0.514,-0.532C0.509,-0.537 0.506,-0.544 0.504,-0.553L0.489,-0.636ZM0.112,-0.636L0.097,-0.553C0.096,-0.544 0.092,-0.537 0.087,-0.532C0.082,-0.527 0.075,-0.524 0.067,-0.524L0.015,-0.524L0.015,-0.612L0.112,-0.636Z" style="fill:rgb(83,29,125);fill-rule:nonzero;"/>
                    </g>
                    <g transform="matrix(71.9379,0,0,71.9379,265.031215,2341.5395)">
                        <path d="M0.1,-0L0.1,-0.724L0.558,-0.724L0.558,-0.616L0.239,-0.616L0.239,-0.416L0.481,-0.416L0.481,-0.312L0.239,-0.312L0.239,-0.108L0.558,-0.108L0.558,-0L0.1,-0ZM0.46,-0.085L0.475,-0.167C0.478,-0.177 0.481,-0.184 0.486,-0.189C0.491,-0.194 0.497,-0.196 0.506,-0.196L0.558,-0.196L0.558,-0.108L0.46,-0.085ZM0.46,-0.639L0.558,-0.616L0.558,-0.528L0.506,-0.528C0.497,-0.528 0.491,-0.53 0.486,-0.535C0.481,-0.54 0.478,-0.547 0.475,-0.557L0.46,-0.639ZM0.125,-0.724L0.113,-0.623L0.055,-0.635C0.046,-0.637 0.039,-0.641 0.034,-0.645C0.029,-0.65 0.026,-0.657 0.026,-0.666L0.026,-0.724L0.125,-0.724ZM0.026,-0L0.026,-0.058C0.026,-0.067 0.028,-0.074 0.033,-0.079C0.038,-0.084 0.046,-0.087 0.055,-0.089L0.112,-0.101L0.125,-0L0.026,-0Z" style="fill:rgb(83,29,125);fill-rule:nonzero;"/>
                    </g>
                    <g transform="matrix(71.9379,0,0,71.9379,307.690389,2341.5395)">
                        <path d="M0.1,-0L0.1,-0.724L0.323,-0.724C0.381,-0.724 0.43,-0.716 0.472,-0.701C0.514,-0.686 0.546,-0.663 0.569,-0.633C0.591,-0.602 0.603,-0.563 0.603,-0.515C0.603,-0.482 0.597,-0.452 0.584,-0.425C0.571,-0.398 0.553,-0.374 0.529,-0.355C0.506,-0.335 0.477,-0.32 0.444,-0.309C0.462,-0.3 0.478,-0.286 0.49,-0.267L0.668,-0L0.544,-0C0.52,-0 0.503,-0.009 0.493,-0.027L0.344,-0.258C0.338,-0.267 0.332,-0.273 0.325,-0.277C0.318,-0.281 0.308,-0.282 0.295,-0.282L0.239,-0.282L0.239,-0L0.1,-0ZM0.239,-0.379L0.321,-0.379C0.369,-0.379 0.406,-0.39 0.431,-0.413C0.456,-0.436 0.468,-0.466 0.468,-0.505C0.468,-0.541 0.456,-0.569 0.432,-0.589C0.409,-0.609 0.372,-0.618 0.323,-0.618L0.239,-0.618L0.239,-0.379ZM0.577,-0L0.524,-0.114L0.593,-0.1L0.577,-0ZM0.026,-0L0.026,-0.058C0.026,-0.067 0.028,-0.074 0.033,-0.079C0.038,-0.084 0.046,-0.087 0.055,-0.089L0.112,-0.101L0.125,-0L0.026,-0ZM0.125,-0.724L0.112,-0.623L0.055,-0.635C0.046,-0.637 0.038,-0.641 0.033,-0.645C0.028,-0.65 0.026,-0.657 0.026,-0.666L0.026,-0.724L0.125,-0.724ZM0.215,-0L0.227,-0.101L0.285,-0.089C0.294,-0.087 0.301,-0.084 0.306,-0.079C0.311,-0.074 0.314,-0.067 0.314,-0.058L0.314,-0L0.215,-0ZM0.577,-0L0.59,-0.101L0.647,-0.089C0.656,-0.087 0.663,-0.084 0.668,-0.079C0.674,-0.074 0.676,-0.067 0.676,-0.058L0.676,-0L0.577,-0Z" style="fill:rgb(83,29,125);fill-rule:nonzero;"/>
                    </g>
                    <g transform="matrix(71.9379,0,0,71.9379,356.823975,2341.5395)">
                        <path d="M0.1,-0L0.1,-0.724L0.173,-0.724C0.184,-0.724 0.193,-0.722 0.199,-0.72C0.206,-0.717 0.212,-0.711 0.219,-0.702L0.595,-0.22C0.594,-0.232 0.593,-0.243 0.592,-0.254C0.592,-0.265 0.591,-0.276 0.591,-0.285L0.591,-0.724L0.713,-0.724L0.713,-0L0.642,-0C0.631,-0 0.622,-0.002 0.615,-0.005C0.608,-0.009 0.601,-0.015 0.593,-0.024L0.219,-0.503C0.22,-0.491 0.221,-0.482 0.221,-0.474C0.222,-0.466 0.222,-0.455 0.222,-0.443L0.222,-0L0.1,-0ZM0.026,-0L0.026,-0.058C0.026,-0.067 0.028,-0.074 0.033,-0.079C0.038,-0.084 0.046,-0.087 0.055,-0.089L0.112,-0.101L0.125,-0L0.026,-0ZM0.202,-0L0.215,-0.101L0.273,-0.089C0.282,-0.087 0.289,-0.084 0.294,-0.079C0.299,-0.074 0.302,-0.067 0.302,-0.058L0.302,-0L0.202,-0ZM0.125,-0.724L0.112,-0.623L0.055,-0.635C0.046,-0.637 0.038,-0.641 0.033,-0.645C0.028,-0.65 0.026,-0.657 0.026,-0.666L0.026,-0.724L0.125,-0.724ZM0.611,-0.724L0.598,-0.623L0.541,-0.635C0.532,-0.637 0.524,-0.641 0.519,-0.645C0.514,-0.65 0.512,-0.657 0.512,-0.666L0.512,-0.724L0.611,-0.724ZM0.788,-0.724L0.788,-0.666C0.788,-0.657 0.786,-0.65 0.78,-0.645C0.775,-0.641 0.768,-0.637 0.759,-0.635L0.702,-0.623L0.689,-0.724L0.788,-0.724Z" style="fill:rgb(83,29,125);fill-rule:nonzero;"/>
                    </g>
                    <g transform="matrix(71.9379,0,0,71.9379,415.525301,2341.5395)">
                        <path d="M0.04,-0L0.324,-0.724L0.465,-0.724L0.749,-0L0.642,-0C0.63,-0 0.62,-0.003 0.612,-0.009C0.604,-0.015 0.599,-0.022 0.596,-0.031L0.422,-0.512C0.418,-0.525 0.413,-0.538 0.408,-0.552C0.404,-0.566 0.399,-0.581 0.395,-0.599C0.39,-0.581 0.385,-0.566 0.38,-0.552C0.376,-0.539 0.371,-0.525 0.367,-0.511L0.193,-0.031C0.19,-0.023 0.185,-0.016 0.177,-0.01C0.169,-0.003 0.159,-0 0.147,-0L0.04,-0ZM0.129,-0L0.129,-0.067L0.221,-0.067L0.221,-0L0.129,-0ZM0.218,-0.199L0.235,-0.295L0.548,-0.295L0.565,-0.199L0.218,-0.199ZM0.558,-0L0.558,-0.067L0.656,-0.067L0.656,-0L0.558,-0ZM0.01,-0L0.01,-0.058C0.01,-0.067 0.013,-0.074 0.018,-0.079C0.023,-0.084 0.03,-0.087 0.039,-0.089L0.097,-0.101L0.109,-0L0.01,-0ZM0.178,-0L0.191,-0.101L0.248,-0.089C0.257,-0.087 0.264,-0.084 0.27,-0.079C0.275,-0.074 0.277,-0.067 0.277,-0.058L0.277,-0L0.178,-0ZM0.511,-0L0.511,-0.058C0.511,-0.067 0.514,-0.074 0.519,-0.079C0.524,-0.084 0.531,-0.087 0.54,-0.089L0.598,-0.101L0.61,-0L0.511,-0ZM0.679,-0L0.692,-0.101L0.749,-0.089C0.758,-0.087 0.765,-0.084 0.771,-0.079C0.776,-0.074 0.778,-0.067 0.778,-0.058L0.778,-0L0.679,-0Z" style="fill:rgb(83,29,125);fill-rule:nonzero;"/>
                    </g>
                    <g transform="matrix(71.9379,0,0,71.9379,471.996553,2341.5395)">
                        <path d="M0.1,-0L0.1,-0.724L0.239,-0.724L0.239,-0.112L0.542,-0.112L0.542,-0L0.1,-0ZM0.445,-0.089L0.46,-0.171C0.462,-0.181 0.465,-0.188 0.47,-0.193C0.475,-0.198 0.482,-0.2 0.491,-0.2L0.542,-0.2L0.542,-0.112L0.445,-0.089ZM0.026,-0L0.026,-0.058C0.026,-0.067 0.028,-0.074 0.033,-0.079C0.038,-0.084 0.046,-0.087 0.055,-0.089L0.112,-0.101L0.125,-0L0.026,-0ZM0.125,-0.724L0.112,-0.623L0.055,-0.635C0.046,-0.637 0.038,-0.641 0.033,-0.645C0.028,-0.65 0.026,-0.657 0.026,-0.666L0.026,-0.724L0.125,-0.724ZM0.315,-0.724L0.315,-0.666C0.315,-0.657 0.312,-0.65 0.307,-0.645C0.302,-0.641 0.295,-0.637 0.286,-0.635L0.228,-0.623L0.216,-0.724L0.315,-0.724Z" style="fill:rgb(83,29,125);fill-rule:nonzero;"/>
                    </g>
                    <g transform="matrix(71.9379,0,0,71.9379,511.49046,2341.5395)">
                    </g>
                    <g transform="matrix(71.9379,0,0,71.9379,528.97137,2341.5395)">
                        <path d="M0.04,-0L0.324,-0.724L0.465,-0.724L0.749,-0L0.642,-0C0.63,-0 0.62,-0.003 0.612,-0.009C0.604,-0.015 0.599,-0.022 0.596,-0.031L0.422,-0.512C0.418,-0.525 0.413,-0.538 0.408,-0.552C0.404,-0.566 0.399,-0.581 0.395,-0.599C0.39,-0.581 0.385,-0.566 0.38,-0.552C0.376,-0.539 0.371,-0.525 0.367,-0.511L0.193,-0.031C0.19,-0.023 0.185,-0.016 0.177,-0.01C0.169,-0.003 0.159,-0 0.147,-0L0.04,-0ZM0.129,-0L0.129,-0.067L0.221,-0.067L0.221,-0L0.129,-0ZM0.218,-0.199L0.235,-0.295L0.548,-0.295L0.565,-0.199L0.218,-0.199ZM0.558,-0L0.558,-0.067L0.656,-0.067L0.656,-0L0.558,-0ZM0.01,-0L0.01,-0.058C0.01,-0.067 0.013,-0.074 0.018,-0.079C0.023,-0.084 0.03,-0.087 0.039,-0.089L0.097,-0.101L0.109,-0L0.01,-0ZM0.178,-0L0.191,-0.101L0.248,-0.089C0.257,-0.087 0.264,-0.084 0.27,-0.079C0.275,-0.074 0.277,-0.067 0.277,-0.058L0.277,-0L0.178,-0ZM0.511,-0L0.511,-0.058C0.511,-0.067 0.514,-0.074 0.519,-0.079C0.524,-0.084 0.531,-0.087 0.54,-0.089L0.598,-0.101L0.61,-0L0.511,-0ZM0.679,-0L0.692,-0.101L0.749,-0.089C0.758,-0.087 0.765,-0.084 0.771,-0.079C0.776,-0.074 0.778,-0.067 0.778,-0.058L0.778,-0L0.679,-0Z" style="fill:rgb(83,29,125);fill-rule:nonzero;"/>
                    </g>
                    <g transform="matrix(71.9379,0,0,71.9379,585.442621,2341.5395)">
                        <path d="M0.1,-0L0.1,-0.724L0.558,-0.724L0.558,-0.616L0.239,-0.616L0.239,-0.402L0.508,-0.402L0.508,-0.294L0.239,-0.294L0.239,-0L0.1,-0ZM0.46,-0.639L0.558,-0.616L0.558,-0.528L0.506,-0.528C0.497,-0.528 0.491,-0.53 0.486,-0.535C0.481,-0.54 0.478,-0.547 0.475,-0.557L0.46,-0.639ZM0.125,-0.724L0.112,-0.623L0.055,-0.635C0.046,-0.637 0.038,-0.641 0.033,-0.645C0.028,-0.65 0.026,-0.657 0.026,-0.666L0.026,-0.724L0.125,-0.724ZM0.026,-0L0.026,-0.058C0.026,-0.067 0.028,-0.074 0.033,-0.079C0.038,-0.084 0.046,-0.087 0.055,-0.089L0.112,-0.101L0.125,-0L0.026,-0ZM0.215,-0L0.228,-0.101L0.285,-0.089C0.294,-0.087 0.301,-0.084 0.307,-0.079C0.312,-0.074 0.314,-0.067 0.314,-0.058L0.314,-0L0.215,-0Z" style="fill:rgb(83,29,125);fill-rule:nonzero;"/>
                    </g>
                    <g transform="matrix(71.9379,0,0,71.9379,628.173734,2341.5395)">
                        <path d="M0.1,-0L0.1,-0.724L0.558,-0.724L0.558,-0.616L0.239,-0.616L0.239,-0.402L0.508,-0.402L0.508,-0.294L0.239,-0.294L0.239,-0L0.1,-0ZM0.46,-0.639L0.558,-0.616L0.558,-0.528L0.506,-0.528C0.497,-0.528 0.491,-0.53 0.486,-0.535C0.481,-0.54 0.478,-0.547 0.475,-0.557L0.46,-0.639ZM0.125,-0.724L0.112,-0.623L0.055,-0.635C0.046,-0.637 0.038,-0.641 0.033,-0.645C0.028,-0.65 0.026,-0.657 0.026,-0.666L0.026,-0.724L0.125,-0.724ZM0.026,-0L0.026,-0.058C0.026,-0.067 0.028,-0.074 0.033,-0.079C0.038,-0.084 0.046,-0.087 0.055,-0.089L0.112,-0.101L0.125,-0L0.026,-0ZM0.215,-0L0.228,-0.101L0.285,-0.089C0.294,-0.087 0.301,-0.084 0.307,-0.079C0.312,-0.074 0.314,-0.067 0.314,-0.058L0.314,-0L0.215,-0Z" style="fill:rgb(83,29,125);fill-rule:nonzero;"/>
                    </g>
                    <g transform="matrix(71.9379,0,0,71.9379,665.581442,2341.5395)">
                        <path d="M0.04,-0L0.324,-0.724L0.465,-0.724L0.749,-0L0.642,-0C0.63,-0 0.62,-0.003 0.612,-0.009C0.604,-0.015 0.599,-0.022 0.596,-0.031L0.422,-0.512C0.418,-0.525 0.413,-0.538 0.408,-0.552C0.404,-0.566 0.399,-0.581 0.395,-0.599C0.39,-0.581 0.385,-0.566 0.38,-0.552C0.376,-0.539 0.371,-0.525 0.367,-0.511L0.193,-0.031C0.19,-0.023 0.185,-0.016 0.177,-0.01C0.169,-0.003 0.159,-0 0.147,-0L0.04,-0ZM0.129,-0L0.129,-0.067L0.221,-0.067L0.221,-0L0.129,-0ZM0.218,-0.199L0.235,-0.295L0.548,-0.295L0.565,-0.199L0.218,-0.199ZM0.558,-0L0.558,-0.067L0.656,-0.067L0.656,-0L0.558,-0ZM0.01,-0L0.01,-0.058C0.01,-0.067 0.013,-0.074 0.018,-0.079C0.023,-0.084 0.03,-0.087 0.039,-0.089L0.097,-0.101L0.109,-0L0.01,-0ZM0.178,-0L0.191,-0.101L0.248,-0.089C0.257,-0.087 0.264,-0.084 0.27,-0.079C0.275,-0.074 0.277,-0.067 0.277,-0.058L0.277,-0L0.178,-0ZM0.511,-0L0.511,-0.058C0.511,-0.067 0.514,-0.074 0.519,-0.079C0.524,-0.084 0.531,-0.087 0.54,-0.089L0.598,-0.101L0.61,-0L0.511,-0ZM0.679,-0L0.692,-0.101L0.749,-0.089C0.758,-0.087 0.765,-0.084 0.771,-0.079C0.776,-0.074 0.778,-0.067 0.778,-0.058L0.778,-0L0.679,-0Z" style="fill:rgb(83,29,125);fill-rule:nonzero;"/>
                    </g>
                    <g transform="matrix(71.9379,0,0,71.9379,722.052693,2341.5395)">
                        <path d="M0.1,-0L0.1,-0.724L0.239,-0.724L0.239,-0L0.1,-0ZM0.026,-0L0.026,-0.058C0.026,-0.067 0.028,-0.074 0.033,-0.079C0.038,-0.084 0.046,-0.087 0.055,-0.089L0.112,-0.101L0.125,-0L0.026,-0ZM0.215,-0L0.228,-0.101L0.285,-0.089C0.294,-0.087 0.301,-0.084 0.307,-0.079C0.312,-0.074 0.314,-0.067 0.314,-0.058L0.314,-0L0.215,-0ZM0.125,-0.724L0.112,-0.623L0.055,-0.635C0.046,-0.637 0.038,-0.641 0.033,-0.645C0.028,-0.65 0.026,-0.657 0.026,-0.666L0.026,-0.724L0.125,-0.724ZM0.314,-0.724L0.314,-0.666C0.314,-0.657 0.312,-0.65 0.307,-0.645C0.301,-0.641 0.294,-0.637 0.285,-0.635L0.228,-0.623L0.215,-0.724L0.314,-0.724Z" style="fill:rgb(83,29,125);fill-rule:nonzero;"/>
                    </g>
                    <g transform="matrix(71.9379,0,0,71.9379,746.295766,2341.5395)">
                        <path d="M0.1,-0L0.1,-0.724L0.323,-0.724C0.381,-0.724 0.43,-0.716 0.472,-0.701C0.514,-0.686 0.546,-0.663 0.569,-0.633C0.591,-0.602 0.603,-0.563 0.603,-0.515C0.603,-0.482 0.597,-0.452 0.584,-0.425C0.571,-0.398 0.553,-0.374 0.529,-0.355C0.506,-0.335 0.477,-0.32 0.444,-0.309C0.462,-0.3 0.478,-0.286 0.49,-0.267L0.668,-0L0.544,-0C0.52,-0 0.503,-0.009 0.493,-0.027L0.344,-0.258C0.338,-0.267 0.332,-0.273 0.325,-0.277C0.318,-0.281 0.308,-0.282 0.295,-0.282L0.239,-0.282L0.239,-0L0.1,-0ZM0.239,-0.379L0.321,-0.379C0.369,-0.379 0.406,-0.39 0.431,-0.413C0.456,-0.436 0.468,-0.466 0.468,-0.505C0.468,-0.541 0.456,-0.569 0.432,-0.589C0.409,-0.609 0.372,-0.618 0.323,-0.618L0.239,-0.618L0.239,-0.379ZM0.577,-0L0.524,-0.114L0.593,-0.1L0.577,-0ZM0.026,-0L0.026,-0.058C0.026,-0.067 0.028,-0.074 0.033,-0.079C0.038,-0.084 0.046,-0.087 0.055,-0.089L0.112,-0.101L0.125,-0L0.026,-0ZM0.125,-0.724L0.112,-0.623L0.055,-0.635C0.046,-0.637 0.038,-0.641 0.033,-0.645C0.028,-0.65 0.026,-0.657 0.026,-0.666L0.026,-0.724L0.125,-0.724ZM0.215,-0L0.227,-0.101L0.285,-0.089C0.294,-0.087 0.301,-0.084 0.306,-0.079C0.311,-0.074 0.314,-0.067 0.314,-0.058L0.314,-0L0.215,-0ZM0.577,-0L0.59,-0.101L0.647,-0.089C0.656,-0.087 0.663,-0.084 0.668,-0.079C0.674,-0.074 0.676,-0.067 0.676,-0.058L0.676,-0L0.577,-0Z" style="fill:rgb(83,29,125);fill-rule:nonzero;"/>
                    </g>
                    <g transform="matrix(71.9379,0,0,71.9379,795.429351,2341.5395)">
                        <path d="M0.265,0.008C0.238,0.008 0.211,0.006 0.185,0.003C0.16,0 0.136,-0.004 0.112,-0.01C0.089,-0.016 0.068,-0.023 0.047,-0.03L0.047,-0.129L0.111,-0.136C0.14,-0.122 0.167,-0.114 0.193,-0.109C0.218,-0.105 0.245,-0.103 0.272,-0.103C0.296,-0.103 0.317,-0.107 0.335,-0.115C0.352,-0.123 0.366,-0.135 0.375,-0.15C0.385,-0.166 0.39,-0.185 0.39,-0.206C0.39,-0.226 0.385,-0.242 0.375,-0.255C0.366,-0.267 0.353,-0.277 0.336,-0.285C0.32,-0.293 0.302,-0.3 0.283,-0.306C0.263,-0.311 0.244,-0.317 0.223,-0.324C0.194,-0.334 0.167,-0.346 0.142,-0.361C0.116,-0.376 0.096,-0.397 0.08,-0.422C0.065,-0.447 0.057,-0.48 0.057,-0.521C0.057,-0.561 0.067,-0.596 0.087,-0.628C0.107,-0.66 0.135,-0.685 0.17,-0.704C0.206,-0.722 0.248,-0.732 0.296,-0.732C0.33,-0.732 0.366,-0.727 0.403,-0.717C0.44,-0.707 0.472,-0.693 0.501,-0.675L0.501,-0.595L0.429,-0.596C0.408,-0.603 0.387,-0.61 0.365,-0.614C0.344,-0.619 0.321,-0.621 0.297,-0.621C0.262,-0.621 0.234,-0.613 0.215,-0.596C0.196,-0.58 0.186,-0.558 0.186,-0.532C0.186,-0.509 0.195,-0.49 0.211,-0.477C0.228,-0.464 0.249,-0.453 0.275,-0.445C0.301,-0.436 0.327,-0.427 0.353,-0.418C0.384,-0.408 0.412,-0.395 0.437,-0.38C0.462,-0.365 0.482,-0.345 0.497,-0.32C0.512,-0.296 0.519,-0.264 0.519,-0.225C0.519,-0.181 0.509,-0.141 0.488,-0.105C0.468,-0.07 0.439,-0.042 0.401,-0.022C0.363,-0.002 0.318,0.008 0.265,0.008ZM0.404,-0.618L0.501,-0.595L0.501,-0.507L0.449,-0.507C0.441,-0.507 0.434,-0.51 0.429,-0.515C0.424,-0.52 0.421,-0.527 0.419,-0.536L0.404,-0.618ZM0.144,-0.106L0.047,-0.129L0.047,-0.217L0.099,-0.217C0.107,-0.217 0.114,-0.215 0.119,-0.21C0.124,-0.205 0.128,-0.198 0.129,-0.188L0.144,-0.106Z" style="fill:rgb(83,29,125);fill-rule:nonzero;"/>
                    </g>
                    <g transform="matrix(71.9379,0,0,71.9379,835.858451,2341.5395)">
                    </g>
                </g>
            </g>
        </g>
    </g>
</svg>
