<?xml version="1.0" encoding="UTF-8" standalone="no"?>
<!DOCTYPE svg PUBLIC "-//W3C//DTD SVG 1.1//EN" "http://www.w3.org/Graphics/SVG/1.1/DTD/svg11.dtd">
<svg width="100%" height="100%" viewBox="0 0 3897 3896" version="1.1" xmlns="http://www.w3.org/2000/svg" xmlns:xlink="http://www.w3.org/1999/xlink" xml:space="preserve" xmlns:serif="http://www.serif.com/" style="fill-rule:evenodd;clip-rule:evenodd;stroke-linejoin:round;stroke-miterlimit:2;">
    <g transform="matrix(1,0,0,1,-135,-4831)">
        <g transform="matrix(4.166667,0,0,4.166667,0,4695.589161)">
            <g id="Layer-1" serif:id="Layer 1">
                <g transform="matrix(0,-1,-1,0,499.9998,32.5525)">
                    <path d="M-467.447,-467.447C-725.611,-467.447 -934.894,-258.164 -934.894,-0C-934.894,258.163 -725.611,467.447 -467.447,467.447C-209.283,467.447 -0,258.163 -0,-0C-0,-258.164 -209.283,-467.447 -467.447,-467.447" style="fill:rgb(246,247,248);fill-rule:nonzero;"/>
                </g>
                <g transform="matrix(1,0,0,1,227.1475,342.0523)">
                    <path d="M0,315.895L0,0.001L273.572,-157.946L547.144,0.001L547.144,315.895L273.572,473.841L0,315.895Z" style="fill:rgb(246,247,248);fill-rule:nonzero;"/>
                </g>
                <g transform="matrix(1,0,0,1,774.2939,657.9443)">
                    <path d="M0,-315.894L0,0L-273.572,157.947L-320.015,131.13L-274.291,-157.53L-547.144,-262.267L-547.144,-315.894L-273.572,-473.841L0,-315.894Z" style="fill:rgb(16,116,60);fill-rule:nonzero;"/>
                </g>
                <g transform="matrix(1,0,0,1,500.7192,787.6598)">
                    <path d="M0,-575.32L249.121,-431.49L249.121,-143.83L0,0L-249.121,-143.83L-249.121,-431.49L0,-575.32Z" style="fill:rgb(246,247,248);fill-rule:nonzero;"/>
                </g>
                <g transform="matrix(1,-0,0,1,774.291,279.7713)">
                    <path d="M0,125.132C-34.498,125.132 -62.565,97.065 -62.565,62.566C-62.565,28.067 -34.498,0 0,0C34.499,0 62.566,28.067 62.566,62.566C62.566,97.065 34.499,125.132 0,125.132" style="fill:rgb(246,247,248);fill-rule:nonzero;"/>
                </g>
                <g transform="matrix(1,-0,0,1,266.7007,364.8883)">
                    <path d="M0,270.223L0,0.001L234.019,-135.11L468.038,0.001L468.038,270.223L234.019,405.333L0,270.223Z" style="fill:rgb(16,116,60);fill-rule:nonzero;"/>
                </g>
                <g transform="matrix(-0.809027,0.587771,0.587771,0.809027,304.795576,739.390441)">
                    <path d="M-298.391,-78.601L0.281,-78.601L14.946,-111.53L-6.244,-140.696L-298.391,-78.601Z" style="fill:rgb(0,129,33);fill-rule:nonzero;"/>
                </g>
                <g transform="matrix(1,0,-0,1,500.0029,500.4216)">
                    <path d="M0,-0.007L-272.853,28.672L-272.853,-28.679L0,-0.007Z" style="fill:rgb(255,141,0);fill-rule:nonzero;"/>
                </g>
                <g transform="matrix(1,0,0,1,500.0029,715.1026)">
                    <path d="M0,-214.688L-173.854,0L-227.136,-30.766L0,-214.688Z" style="fill:rgb(0,76,255);fill-rule:nonzero;"/>
                </g>
                <g transform="matrix(1,0,0,1,500.0029,751.0446)">
                    <path d="M0,-250.63L-111.59,0L-161.262,-28.672L0,-250.63Z" style="fill:rgb(118,1,136);fill-rule:nonzero;"/>
                </g>
                <g transform="matrix(1,0,0,1,227.1504,500.4147)">
                    <path d="M0,-43.214L272.853,0L0,-28.672L0,-43.214Z" style="fill:rgb(246,247,248);fill-rule:nonzero;"/>
                </g>
                <g transform="matrix(1,0,0,1,227.1504,514.9568)">
                    <path d="M0,14.137L272.853,-14.542L0,28.679L0,14.137Z" style="fill:rgb(246,247,248);fill-rule:nonzero;"/>
                </g>
                <g transform="matrix(1,0,0,1,227.1504,517.1564)">
                    <path d="M0,87.995L272.853,-16.742L0,104.737L0,87.995Z" style="fill:rgb(246,247,248);fill-rule:nonzero;"/>
                </g>
                <g transform="matrix(1,0,0,1,258.3687,508.7858)">
                    <path d="M0,167.18L241.634,-8.371L14.498,175.551L0,167.18Z" style="fill:rgb(246,247,248);fill-rule:nonzero;"/>
                </g>
                <g transform="matrix(1,0,0,1,326.1484,507.6855)">
                    <path d="M0,207.417L173.854,-7.271L12.592,214.688L0,207.417Z" style="fill:rgb(246,247,248);fill-rule:nonzero;"/>
                </g>
                <g transform="matrix(1,0,0,1,388.4126,507.6859)">
                    <path d="M0,243.359L111.59,-7.271L12.585,250.63L0,243.359Z" style="fill:rgb(246,247,248);fill-rule:nonzero;"/>
                </g>
                <g transform="matrix(-0.865273,-0.501301,-0.501301,0.865273,441.025658,678.311384)">
                    <path d="M46.831,-168.39L409.68,-168.39L-135.011,-483.961L-135.794,145.18L46.831,-168.39Z" style="fill:rgb(246,247,248);fill-rule:nonzero;"/>
                </g>
                <g transform="matrix(1,0,0,1,500.0029,605.1516)">
                    <path d="M0,-104.737L-272.853,0L-272.853,-61.516L0,-104.737Z" style="fill:rgb(255,238,0);fill-rule:nonzero;"/>
                </g>
                <g transform="matrix(1,0,0,1,500.0029,395.6776)">
                    <path d="M0,104.737L-272.853,61.523L-272.853,0L0,104.737Z" style="fill:rgb(229,0,0);fill-rule:nonzero;"/>
                </g>
                <g transform="matrix(1,0,0,1,227.1504,449.4712)">
                    <path d="M0.156,-50.597L27.468,-73.786L192.222,19.992L0.156,-50.597Z" style="fill:rgb(229,0,0);fill-rule:nonzero;"/>
                </g>
                <g transform="matrix(1,0,0,1,500.0029,789.0746)">
                    <path d="M0,-288.66L-45.724,0L-99.005,-30.758L0,-288.66Z" style="fill:rgb(255,176,201);fill-rule:nonzero;"/>
                </g>
                <g transform="matrix(1,0,0,1,227.1475,279.7713)">
                    <path d="M0,125.132C-34.499,125.132 -62.566,97.065 -62.566,62.566C-62.566,28.067 -34.499,0 0,0C34.499,0 62.566,28.067 62.566,62.566C62.566,97.065 34.499,125.132 0,125.132" style="fill:rgb(246,247,248);fill-rule:nonzero;"/>
                </g>
                <g transform="matrix(1,0,0,1,454.2793,585.7022)">
                    <path d="M-7.735,198.756L31.427,172.614L32.214,0L-7.735,198.756Z" style="fill:rgb(255,176,201);fill-rule:nonzero;"/>
                </g>
                <g transform="matrix(1,0,0,1,500.7192,753.328)">
                    <path d="M0,125.132C-34.499,125.132 -62.566,97.065 -62.566,62.566C-62.566,28.067 -34.499,0 0,0C34.5,0 62.566,28.067 62.566,62.566C62.566,97.065 34.5,125.132 0,125.132" style="fill:rgb(246,247,248);fill-rule:nonzero;"/>
                </g>
                <g transform="matrix(1,0,0,1,500.0005,414.0718)">
                    <path d="M0,172.687C-47.61,172.687 -86.344,133.953 -86.344,86.343C-86.344,38.733 -47.61,0 0,0C47.61,0 86.342,38.733 86.342,86.343C86.342,133.953 47.61,172.687 0,172.687" style="fill:rgb(246,247,248);fill-rule:nonzero;"/>
                </g>
                <g transform="matrix(1,0,0,1,227.1475,815.8934)">
                    <path d="M0,-473.556L547.144,-473.556L273.572,0L272.853,-315.478L0,-473.556Z" style="fill:rgb(16,116,60);fill-rule:nonzero;"/>
                </g>
                <g transform="matrix(-0.865274,-0.501299,-0.501299,0.865274,495.670636,597.804994)">
                    <path d="M31.02,-110.89L269.433,-110.89L-88.62,-318.329L-89.132,95.415L31.02,-110.89Z" style="fill:rgb(246,247,248);fill-rule:nonzero;"/>
                </g>
                <g transform="matrix(-0.865274,-0.501299,-0.501299,0.865274,495.670636,597.804994)">
                    <path d="M31.02,-110.89L269.433,-110.89L-88.62,-318.329L-89.132,95.415L31.02,-110.89Z" style="fill:rgb(246,247,248);fill-rule:nonzero;"/>
                </g>
                <g transform="matrix(-0.865274,-0.501299,-0.501299,0.865274,495.670636,597.804994)">
                    <path d="M109.846,-110.89L149.742,-110.89L-29.04,-214.468L-29.148,-127.383L-29.296,-7.325L-9.127,-41.956L-9.161,-179.837L109.846,-110.89Z" style="fill:rgb(255,176,201);"/>
                </g>
                <g transform="matrix(-0.865274,-0.501299,-0.501299,0.865274,495.670636,597.804994)">
                    <path d="M149.763,-110.89L189.659,-110.89L-48.883,-249.091L-48.991,-162.005L-49.224,26.892L-28.953,-7.914L-29.004,-214.459L149.763,-110.89Z" style="fill:rgb(117,216,238);"/>
                </g>
                <g transform="matrix(-0.865274,-0.501299,-0.501299,0.865274,495.670636,597.804994)">
                    <path d="M189.648,-110.89L229.544,-110.89L-68.757,-283.712L-68.865,-196.627L-69.183,61.162L-48.811,26.182L-48.878,-249.081L189.648,-110.89Z" style="fill:rgb(97,54,13);"/>
                </g>
                <g transform="matrix(-0.865274,-0.501299,-0.501299,0.865274,495.670636,597.804994)">
                    <path d="M269.433,-110.89L-88.62,-318.329L-88.727,-231.243L-89.13,95.416L-68.656,60.257L-68.74,-283.698L229.536,-110.89L269.433,-110.89Z"/>
                </g>
                <g transform="matrix(0,-1,-1,0,500,428.5)">
                    <path d="M-71.915,-71.915C-111.633,-71.915 -143.83,-39.718 -143.83,0C-143.83,39.718 -111.633,71.915 -71.915,71.915C-32.198,71.915 0,39.718 0,0C0,-39.718 -32.198,-71.915 -71.915,-71.915" style="fill:rgb(16,116,60);fill-rule:nonzero;"/>
                </g>
                <g transform="matrix(1,0,0,1,500.0005,452.9509)">
                    <path d="M0,94.928C-26.172,94.928 -47.464,73.636 -47.464,47.464C-47.464,21.293 -26.172,0 0,0C26.171,0 47.463,21.293 47.463,47.464C47.463,73.636 26.171,94.928 0,94.928" style="fill:rgb(246,247,248);fill-rule:nonzero;"/>
                </g>
                <g transform="matrix(1,0,0,1,227.1479,294.8733)">
                    <path d="M0,94.928C-26.172,94.928 -47.464,73.636 -47.464,47.464C-47.464,21.292 -26.172,0 0,0C26.171,0 47.464,21.292 47.464,47.464C47.464,73.636 26.171,94.928 0,94.928" style="fill:rgb(16,116,60);fill-rule:nonzero;"/>
                </g>
                <g transform="matrix(1,0,0,1,227.1475,319.3251)">
                    <path d="M0,46.025C-12.689,46.025 -23.012,35.702 -23.012,23.012C-23.012,10.323 -12.689,0 0,0C12.689,0 23.013,10.323 23.013,23.012C23.013,35.702 12.689,46.025 0,46.025" style="fill:rgb(246,247,248);fill-rule:nonzero;"/>
                </g>
                <g transform="matrix(1,0,0,1,774.292,294.8733)">
                    <path d="M0,94.928C-26.172,94.928 -47.464,73.636 -47.464,47.464C-47.464,21.292 -26.172,0 0,0C26.172,0 47.464,21.292 47.464,47.464C47.464,73.636 26.172,94.928 0,94.928" style="fill:rgb(16,116,60);fill-rule:nonzero;"/>
                </g>
                <g transform="matrix(1,0,0,1,773.7979,319.3251)">
                    <path d="M0,46.025C-12.688,46.025 -23.012,35.702 -23.012,23.012C-23.012,10.323 -12.688,0 0,0C12.689,0 23.014,10.323 23.014,23.012C23.014,35.702 12.689,46.025 0,46.025" style="fill:rgb(246,247,248);fill-rule:nonzero;"/>
                </g>
                <g transform="matrix(1,0,0,1,500.7192,768.4294)">
                    <path d="M0,94.928C-26.171,94.928 -47.464,73.636 -47.464,47.464C-47.464,21.293 -26.171,0 0,0C26.172,0 47.464,21.293 47.464,47.464C47.464,73.636 26.172,94.928 0,94.928" style="fill:rgb(16,116,60);fill-rule:nonzero;"/>
                </g>
                <g transform="matrix(1,0,0,1,500.7192,792.8813)">
                    <path d="M0,46.025C-12.689,46.025 -23.012,35.702 -23.012,23.012C-23.012,10.323 -12.689,0 0,0C12.689,0 23.013,10.323 23.013,23.012C23.013,35.702 12.689,46.025 0,46.025" style="fill:rgb(246,247,248);fill-rule:nonzero;"/>
                </g>
            </g>
        </g>
    </g>
</svg>
